<?xml version="1.0" encoding="utf-8"?>
<!-- Generator: Adobe Illustrator 23.0.1, SVG Export Plug-In . SVG Version: 6.00 Build 0)  -->
<svg version="1.1" xmlns="http://www.w3.org/2000/svg" xmlns:xlink="http://www.w3.org/1999/xlink" x="0px" y="0px"
	 viewBox="0 0 360 358.72" style="enable-background:new 0 0 360 358.72;" xml:space="preserve">
<style type="text/css">
	.st0{fill:url(#SVGID_1_);}
	.st1{fill:#F59DB2;}
	.st2{fill:#AADFF1;}
	.st3{fill:#FBB57F;}
	.st4{fill:#FCEC98;}
	.st5{fill:url(#SVGID_2_);}
	.st6{fill:url(#SVGID_3_);}
	.st7{fill:#808080;}
</style>
<g id="Calque_2">
	
		<radialGradient id="SVGID_1_" cx="186.5211" cy="312.9497" r="168.855" gradientTransform="matrix(0.9595 0 0 0.2148 1.0314 245.7172)" gradientUnits="userSpaceOnUse">
		<stop  offset="0" style="stop-color:#808080"/>
		<stop  offset="1" style="stop-color:#808080;stop-opacity:0"/>
	</radialGradient>
	<ellipse class="st0" cx="180" cy="312.95" rx="175" ry="40.79"/>
</g>
<g id="Calque_1">
	<path class="st1" d="M134.24,13.92c-18.63,5.78-23.16,28.14-32.96,46.76c-18.63,5.78-46.95,9.2-56.76,27.83
		C64.13,51.26,96.98,25.48,134.24,13.92z"/>
	<path class="st2" d="M44.52,88.51c-9.81,18.63,31.74,40.23,37.52,58.87c-9.8,18.62-53.98,38.69-48.2,57.31
		C22.27,167.43,24.92,125.76,44.52,88.51z"/>
	<path class="st3" d="M108.43,294.4c-37.25-19.6-63.03-52.45-74.59-89.71c5.78,18.63,59.51-17.18,78.13-7.38
		C117.76,215.95,89.8,284.6,108.43,294.4z"/>
	<path class="st4" d="M224.61,305.09c-37.26,11.57-78.93,8.92-116.18-10.68c18.63,9.81,43.57-48.37,62.21-54.15
		C189.27,250.05,205.99,310.87,224.61,305.09z"/>
	<path class="st1" d="M314.33,230.5c-19.6,37.25-52.45,63.03-89.71,74.59c18.63-5.78,12.45-59.51,22.26-78.13
		C265.51,221.17,304.52,249.13,314.33,230.5z"/>
	<path class="st2" d="M325.01,114.31c11.57,37.26,8.92,78.93-10.68,116.18c9.81-18.63-35.5-39.46-41.29-58.09
		C282.84,153.78,330.79,132.94,325.01,114.31z"/>
	<path class="st3" d="M325.01,114.31c-5.78-18.63-61.86,20.33-80.48,10.52c-5.78-18.63,24.52-90.43,5.89-100.23
		C287.67,44.2,313.45,77.05,325.01,114.31z"/>
	<path class="st4" d="M250.42,24.6c-18.63-9.81-43.57,34.33-62.21,40.12c-18.62-9.8-35.35-56.58-53.98-50.8
		C171.5,2.35,213.17,5,250.42,24.6z"/>
	<path class="st4" d="M287.72,69.45c5.78,18.63,4.46,39.47-5.34,58.1c-9.79,18.62-26.22,31.51-44.84,37.3
		c-18.63,5.78-39.48,4.46-58.11-5.34c-18.63-9.81-31.52-26.24-37.31-44.87c-5.77-18.63-4.45-39.47,5.35-58.08
		C167.07,19.3,213.17,5,250.42,24.6C269.04,34.4,281.93,50.82,287.72,69.45z"/>
	<path class="st1" d="M229.62,64.11c5.78,18.63,4.46,39.46-5.35,58.09l-0.01,0.01c-9.81,18.62-26.22,31.51-44.84,37.29
		c-18.63,5.78-39.45,4.45-58.08-5.34l-0.01-0.01c-18.63-9.81-31.52-26.23-37.3-44.85s-4.46-39.46,5.35-58.09
		c9.81-18.63,26.23-31.52,44.85-37.3s39.46-4.46,58.09,5.35C210.95,29.07,223.84,45.49,229.62,64.11z"/>
	<path class="st2" d="M184.77,101.4c5.78,18.63,4.46,39.48-5.34,58.11c-9.81,18.63-26.24,31.52-44.87,37.31
		c-18.63,5.77-39.47,4.45-58.08-5.35c-18.63-9.81-31.52-26.24-37.3-44.86c-5.78-18.63-4.45-39.47,5.35-58.09s26.22-31.51,44.85-37.3
		c18.63-5.78,39.47-4.46,58.1,5.34C166.09,66.34,178.98,82.77,184.77,101.4z"/>
	<path class="st3" d="M179.43,159.5c5.78,18.63,4.46,39.46-5.35,58.09c-9.81,18.63-26.23,31.52-44.85,37.3
		c-18.63,5.78-39.46,4.46-58.09-5.35l-0.01-0.01c-18.62-9.81-31.51-26.22-37.29-44.84s-4.46-39.46,5.34-58.08l0.01-0.01
		c0.31-0.6,0.63-1.17,0.96-1.75c0.31-0.57,0.63-1.12,0.96-1.67c0.31-0.53,0.64-1.06,0.97-1.59c0.38-0.61,0.76-1.21,1.16-1.79
		c0.26-0.4,0.52-0.79,0.8-1.17c0.81-1.17,1.65-2.31,2.5-3.42c0.77-1.01,1.58-1.98,2.41-2.94c0.64-0.74,1.3-1.48,1.97-2.2
		c0.47-0.51,0.94-1.01,1.43-1.49c0.95-0.96,1.9-1.89,2.9-2.79c0.24-0.22,0.48-0.44,0.72-0.65c0.15-0.14,0.3-0.27,0.46-0.41
		c0.56-0.49,1.13-0.98,1.71-1.46c0.64-0.52,1.28-1.03,1.93-1.53c0.04-0.03,0.09-0.07,0.15-0.11c0.64-0.5,1.3-0.98,1.96-1.46
		c0.69-0.49,1.38-0.97,2.08-1.44c1.02-0.68,2.06-1.34,3.11-1.98c0.53-0.31,1.05-0.62,1.59-0.92c0.35-0.2,0.71-0.41,1.07-0.6
		c0.29-0.16,0.58-0.32,0.87-0.47c0.35-0.18,0.71-0.37,1.06-0.55c0.18-0.09,0.35-0.18,0.53-0.26c0.45-0.23,0.89-0.45,1.35-0.66
		c0.89-0.43,1.79-0.83,2.69-1.21c0.32-0.14,0.63-0.28,0.95-0.41c0.15-0.06,0.29-0.12,0.44-0.18c0.43-0.18,0.88-0.35,1.32-0.52
		c0.45-0.17,0.89-0.34,1.34-0.5c0.52-0.19,1.04-0.38,1.57-0.55c0.62-0.22,1.26-0.42,1.89-0.62c0.63-0.2,1.27-0.38,1.91-0.56
		c0.54-0.16,1.07-0.3,1.61-0.44c0.46-0.12,0.93-0.23,1.39-0.35c0.46-0.11,0.92-0.22,1.38-0.32c0.16-0.04,0.31-0.06,0.47-0.1
		c0.34-0.07,0.67-0.13,1.01-0.2c0.96-0.2,1.93-0.37,2.9-0.53c0.5-0.08,0.98-0.16,1.49-0.22c0.19-0.04,0.39-0.06,0.58-0.08
		c0.4-0.05,0.8-0.1,1.19-0.15c0.33-0.04,0.66-0.08,0.99-0.1c0.4-0.05,0.81-0.08,1.22-0.11c0.61-0.06,1.21-0.1,1.83-0.14
		c1.22-0.07,2.45-0.11,3.68-0.13c0.85-0.01,1.69,0,2.54,0.01c0.82,0.02,1.63,0.05,2.44,0.09c0.06,0,0.13,0,0.18,0.01
		c0.82,0.04,1.64,0.11,2.46,0.17c0.74,0.07,1.49,0.14,2.23,0.23c0.21,0.02,0.41,0.04,0.61,0.08c0.32,0.04,0.64,0.08,0.96,0.13
		c1.33,0.18,2.65,0.4,3.97,0.66c0.68,0.12,1.35,0.26,2.02,0.41c0.96,0.21,1.92,0.45,2.87,0.7c1.23,0.32,2.44,0.67,3.65,1.06
		c1.33,0.43,2.67,0.89,4,1.4c0.44,0.16,0.88,0.33,1.32,0.52c0.65,0.25,1.31,0.53,1.97,0.82c0.57,0.25,1.13,0.5,1.69,0.76
		c0.58,0.27,1.16,0.54,1.74,0.83c0.6,0.29,1.18,0.59,1.78,0.9C160.76,124.46,173.64,140.88,179.43,159.5z"/>
	<path class="st4" d="M216.72,204.35c5.78,18.63,4.46,39.47-5.34,58.1c-9.79,18.62-26.22,31.51-44.84,37.3
		c-18.63,5.78-39.48,4.46-58.11-5.34c-18.63-9.81-31.52-26.24-37.31-44.87c-5.77-18.63-4.45-39.47,5.35-58.08
		c19.6-37.25,65.7-51.56,102.95-31.95C198.04,169.3,210.94,185.72,216.72,204.35z"/>
	<path class="st1" d="M274.81,209.7c5.78,18.63,4.46,39.46-5.35,58.09l-0.01,0.01c-9.81,18.62-26.22,31.51-44.84,37.29
		s-39.45,4.45-58.08-5.34l-0.01-0.01c-18.63-9.81-31.52-26.23-37.3-44.85c-5.78-18.63-4.46-39.46,5.35-58.09
		c9.81-18.63,26.23-31.52,44.85-37.3c18.63-5.78,39.46-4.46,58.09,5.35C256.15,174.66,269.03,191.08,274.81,209.7z"/>
	<path class="st2" d="M319.67,172.39c5.78,18.63,4.46,39.48-5.34,58.11c-9.81,18.63-26.24,31.52-44.87,37.31
		c-18.63,5.77-39.47,4.45-58.08-5.35c-18.63-9.81-31.52-26.24-37.3-44.86c-5.78-18.63-4.45-39.47,5.35-58.09s26.22-31.51,44.85-37.3
		c18.63-5.78,39.47-4.46,58.1,5.34C300.99,137.34,313.88,153.77,319.67,172.39z"/>
	<path class="st3" d="M325.01,114.31c5.78,18.63,4.45,39.45-5.34,58.08l-0.01,0.01c-9.81,18.63-26.23,31.52-44.85,37.3
		c-18.63,5.78-39.46,4.46-58.09-5.35c-18.63-9.81-31.52-26.23-37.3-44.85c-5.78-18.63-4.46-39.46,5.35-58.09
		c9.81-18.63,26.23-31.52,44.85-37.3s39.46-4.46,58.09,5.35l0.01,0.01C306.35,79.28,319.23,95.69,325.01,114.31z"/>
	<path class="st4" d="M287.72,69.47c5.77,18.63,4.45,39.47-5.35,58.08c-9.81,18.63-26.24,31.52-44.86,37.3
		c-18.63,5.78-39.47,4.45-58.09-5.35c18.63-5.78,35.05-18.67,44.85-37.3c0.31-0.59,0.61-1.18,0.9-1.78
		c0.29-0.58,0.57-1.15,0.83-1.74c0.26-0.56,0.51-1.13,0.76-1.69c0.28-0.64,0.55-1.3,0.81-1.95c0.24-0.57,0.45-1.14,0.67-1.72
		c1.99-5.29,3.34-10.7,4.08-16.12c0.05-0.32,0.09-0.64,0.13-0.96c0,0,0-0.01,0-0.01c0.16-0.98,0.24-1.97,0.32-2.96
		c0.06-0.78,0.12-1.55,0.16-2.33c0.01-0.07,0.02-0.12,0.01-0.18c0.05-0.81,0.07-1.63,0.09-2.44c0.01-0.85,0.02-1.69,0.01-2.54
		c-0.02-1.23-0.06-2.46-0.13-3.68c-0.04-0.61-0.09-1.22-0.14-1.83c-0.03-0.41-0.06-0.82-0.11-1.22c-0.03-0.33-0.07-0.66-0.1-0.99
		c-0.05-0.39-0.1-0.79-0.15-1.19c-0.03-0.2-0.05-0.41-0.08-0.61c-0.06-0.47-0.13-0.94-0.21-1.4c-0.01-0.06-0.02-0.12-0.02-0.17
		c-0.15-0.93-0.32-1.86-0.51-2.78c-0.06-0.34-0.13-0.68-0.2-1.02c-0.03-0.14-0.06-0.28-0.09-0.41c-0.1-0.49-0.22-0.98-0.33-1.45
		c-0.1-0.47-0.22-0.92-0.34-1.37c-0.14-0.54-0.28-1.07-0.44-1.61c-0.18-0.64-0.37-1.28-0.56-1.91c-0.2-0.63-0.4-1.27-0.62-1.89
		c-0.18-0.53-0.36-1.05-0.55-1.57c-0.16-0.44-0.32-0.88-0.5-1.33c-0.17-0.46-0.35-0.92-0.55-1.38c-0.05-0.12-0.1-0.26-0.15-0.39
		c-0.13-0.32-0.27-0.64-0.41-0.96c-0.36-0.87-0.75-1.73-1.15-2.58c-0.02-0.05-0.05-0.1-0.08-0.16c-0.2-0.43-0.4-0.85-0.62-1.28
		c-0.09-0.19-0.19-0.37-0.28-0.55c-0.19-0.36-0.37-0.71-0.55-1.06c-0.15-0.29-0.31-0.59-0.47-0.87c-0.19-0.36-0.39-0.72-0.6-1.07
		c-0.3-0.53-0.61-1.07-0.92-1.59c-0.63-1.05-1.3-2.09-1.98-3.11c-0.47-0.7-0.95-1.4-1.44-2.08c-0.48-0.66-0.96-1.32-1.46-1.96
		c-0.03-0.06-0.06-0.1-0.11-0.15c-0.47-0.62-0.96-1.23-1.46-1.83c-0.62-0.77-1.25-1.54-1.94-2.26c0,0-0.01-0.01-0.01-0.01
		c-0.21-0.24-0.43-0.48-0.65-0.72c-3.34-3.67-7.08-7.04-11.2-10.05c-0.43-0.31-0.86-0.63-1.3-0.93c-0.5-0.35-1-0.7-1.52-1.04
		c-0.58-0.39-1.18-0.78-1.77-1.15c-0.53-0.33-1.05-0.65-1.59-0.97c-0.55-0.33-1.11-0.65-1.67-0.96c-0.58-0.33-1.17-0.65-1.75-0.96
		l-0.01-0.01c18.63-5.78,39.48-4.46,58.11,5.34C269.05,34.4,281.94,50.83,287.72,69.47z"/>
	<path class="st1" d="M229.62,64.11c0.2,0.63,0.38,1.27,0.56,1.91c0.16,0.54,0.3,1.07,0.44,1.61c0.12,0.45,0.24,0.91,0.34,1.37
		c0.12,0.47,0.23,0.96,0.33,1.45c0.03,0.13,0.06,0.27,0.09,0.41c0.07,0.34,0.14,0.68,0.2,1.02c0.19,0.92,0.36,1.85,0.51,2.78
		c0.01,0.05,0.01,0.11,0.02,0.17c0.08,0.46,0.14,0.94,0.21,1.4c0.03,0.2,0.05,0.41,0.08,0.61c0.05,0.4,0.1,0.8,0.15,1.19
		c0.04,0.33,0.08,0.66,0.1,0.99c0.04,0.41,0.08,0.82,0.11,1.22c0.05,0.61,0.1,1.22,0.14,1.83c0.07,1.23,0.12,2.45,0.13,3.68
		c0.01,0.85,0,1.69-0.01,2.54c-0.02,0.82-0.05,1.63-0.09,2.44c0.01,0.06,0,0.12-0.01,0.18c-0.04,0.82-0.11,1.64-0.17,2.46
		c-0.07,0.74-0.14,1.49-0.23,2.23c-0.02,0.2-0.04,0.41-0.08,0.61c-0.04,0.32-0.08,0.64-0.13,0.96c-0.74,5.42-2.1,10.83-4.08,16.12
		c-0.21,0.58-0.43,1.14-0.67,1.72c-0.25,0.65-0.53,1.31-0.81,1.95c-0.25,0.57-0.5,1.13-0.76,1.69c-0.27,0.58-0.54,1.16-0.83,1.74
		c-0.29,0.6-0.6,1.2-0.9,1.78c-9.81,18.63-26.23,31.52-44.85,37.3c9.8-18.62,11.13-39.45,5.35-58.09
		c-5.78-18.63-18.67-35.05-37.3-44.86c-18.61-9.8-39.45-11.12-58.08-5.35c9.8-18.62,26.22-31.51,44.84-37.29s39.46-4.46,58.08,5.34
		l0.01,0.01c0.59,0.31,1.17,0.63,1.75,0.96c0.57,0.31,1.12,0.63,1.67,0.96c0.53,0.31,1.06,0.64,1.59,0.97
		c0.59,0.37,1.19,0.76,1.77,1.15c0.52,0.34,1.02,0.68,1.52,1.04c0.44,0.3,0.87,0.61,1.3,0.93c4.12,3.01,7.86,6.38,11.2,10.05
		c0.22,0.24,0.44,0.48,0.65,0.72c0.14,0.15,0.28,0.31,0.41,0.46c0.49,0.56,0.98,1.13,1.46,1.71c0.52,0.64,1.03,1.28,1.53,1.93
		c0.05,0.05,0.08,0.09,0.11,0.15c0.5,0.64,0.98,1.3,1.46,1.96c0.49,0.69,0.97,1.38,1.44,2.08c0.69,1.02,1.34,2.05,1.98,3.11
		c0.31,0.52,0.61,1.05,0.92,1.59c0.2,0.35,0.4,0.71,0.6,1.07c0.16,0.29,0.32,0.58,0.47,0.87c0.18,0.35,0.37,0.71,0.55,1.06
		c0.09,0.19,0.19,0.37,0.28,0.55c0.21,0.43,0.42,0.85,0.62,1.28c0.03,0.06,0.06,0.11,0.08,0.16c0.4,0.85,0.79,1.71,1.15,2.58
		c0.14,0.32,0.28,0.64,0.41,0.96c0.05,0.13,0.1,0.27,0.15,0.39c0.2,0.46,0.37,0.93,0.55,1.38c0.18,0.44,0.34,0.88,0.5,1.33
		c0.19,0.52,0.38,1.04,0.55,1.57C229.22,62.85,229.43,63.48,229.62,64.11z"/>
	<path class="st2" d="M184.77,101.41c5.78,18.63,4.45,39.47-5.35,58.09c-5.78-18.63-18.67-35.05-37.3-44.85
		c-0.6-0.31-1.18-0.61-1.78-0.9c-0.58-0.29-1.15-0.57-1.74-0.83c-0.56-0.26-1.13-0.51-1.69-0.76c-0.65-0.29-1.31-0.56-1.97-0.82
		c-0.44-0.18-0.88-0.36-1.32-0.52c-1.33-0.5-2.66-0.97-4-1.4c-1.22-0.39-2.43-0.74-3.65-1.06c-0.95-0.25-1.91-0.48-2.87-0.7
		c-0.68-0.15-1.35-0.29-2.02-0.41c-1.33-0.26-2.64-0.48-3.97-0.66c-0.32-0.05-0.64-0.09-0.96-0.13c-0.2-0.03-0.4-0.06-0.61-0.08
		c-0.74-0.09-1.49-0.17-2.23-0.23c-0.82-0.07-1.64-0.13-2.46-0.17c-0.05,0-0.12-0.01-0.18-0.01c-0.81-0.05-1.63-0.07-2.44-0.09
		c-0.85-0.01-1.69-0.02-2.54-0.01c-1.23,0.01-2.45,0.06-3.68,0.13c-0.61,0.04-1.22,0.08-1.83,0.14c-0.41,0.03-0.82,0.06-1.22,0.11
		c-0.33,0.03-0.66,0.07-0.99,0.1c-0.39,0.05-0.79,0.1-1.19,0.15c-0.19,0.03-0.39,0.05-0.58,0.08c-0.5,0.06-0.99,0.14-1.49,0.22
		c-0.97,0.15-1.94,0.33-2.9,0.53c-0.34,0.06-0.67,0.12-1.01,0.2c-0.16,0.04-0.31,0.06-0.47,0.1c-0.46,0.1-0.92,0.21-1.38,0.32
		c-0.47,0.1-0.93,0.22-1.39,0.35c-0.54,0.14-1.07,0.28-1.61,0.44c-0.64,0.18-1.28,0.37-1.91,0.56c-0.63,0.2-1.27,0.4-1.89,0.62
		c-0.53,0.18-1.05,0.36-1.57,0.55c-0.45,0.16-0.9,0.32-1.34,0.5c-0.44,0.17-0.88,0.34-1.32,0.52c-0.15,0.06-0.29,0.12-0.44,0.18
		c-0.32,0.13-0.63,0.27-0.95,0.41c-0.9,0.38-1.8,0.78-2.69,1.21c-0.45,0.22-0.9,0.43-1.35,0.66c-0.18,0.08-0.35,0.17-0.53,0.26
		c-0.36,0.19-0.71,0.37-1.06,0.55c-0.29,0.15-0.59,0.31-0.87,0.47c-0.36,0.19-0.72,0.39-1.07,0.6c-0.54,0.29-1.06,0.6-1.59,0.92
		c-1.06,0.64-2.09,1.29-3.11,1.98c-0.7,0.47-1.4,0.95-2.08,1.44c-0.66,0.48-1.32,0.96-1.96,1.46c-0.05,0.04-0.1,0.07-0.15,0.11
		c-0.65,0.5-1.29,1.02-1.93,1.53c-0.58,0.48-1.15,0.96-1.71,1.46c-0.16,0.13-0.31,0.27-0.46,0.41c-0.24,0.21-0.48,0.43-0.72,0.65
		c-1,0.91-1.95,1.83-2.9,2.79c-0.49,0.48-0.96,0.98-1.43,1.49c-0.67,0.72-1.33,1.45-1.97,2.2c-0.82,0.95-1.62,1.93-2.41,2.94
		c-0.86,1.11-1.7,2.25-2.5,3.42c-0.27,0.38-0.54,0.77-0.8,1.17c-0.39,0.58-0.78,1.18-1.16,1.79c-0.33,0.53-0.65,1.05-0.97,1.59
		c-0.33,0.55-0.65,1.11-0.96,1.67c-0.33,0.58-0.64,1.16-0.96,1.75l-0.01,0.01c-5.78-18.63-4.46-39.48,5.34-58.11
		c9.81-18.63,26.24-31.52,44.87-37.31c18.63-5.77,39.47-4.45,58.08,5.35C166.1,66.36,178.99,82.79,184.77,101.41z"/>
	<g>
		<linearGradient id="SVGID_2_" gradientUnits="userSpaceOnUse" x1="256.8934" y1="25.6157" x2="102.9137" y2="292.3163">
			<stop  offset="0" style="stop-color:#E4E4E4;stop-opacity:0"/>
			<stop  offset="1" style="stop-color:#333333;stop-opacity:0.4"/>
		</linearGradient>
		<circle class="st5" cx="179.9" cy="158.97" r="153.95"/>
		<linearGradient id="SVGID_3_" gradientUnits="userSpaceOnUse" x1="170.1626" y1="67.4317" x2="295.9574" y2="67.4317">
			<stop  offset="0" style="stop-color:#FFFFFF;stop-opacity:0.3"/>
			<stop  offset="1" style="stop-color:#FFFFFF;stop-opacity:0.1"/>
		</linearGradient>
		<path class="st6" d="M293.66,102.42c-9.28,16.06-43.92,13.42-77.39-5.9s-53.08-48.01-43.8-64.07s43.92-13.42,77.39,5.9
			S302.93,86.35,293.66,102.42z"/>
	</g>
	<path class="st7" d="M193.91,5.62c57.23,5.3,106.67,42.86,128.36,95.08c0.39,0.93,0.77,1.86,1.13,2.8
		c-0.93,0.28-1.85,0.57-2.78,0.86c-0.36-0.94-0.73-1.87-1.12-2.8c-0.64-1.61-1.32-3.2-2.04-4.78C291.92,40.2,232.3,4.37,170.37,8.28
		C107.26,12.25,52.15,56.7,34.7,117.43c-17.51,60.97,6.22,128.4,58.11,164.9c51.6,36.32,122.11,36.48,173.83,0.25
		c49.33-34.56,72.95-96.44,60.88-154.84c-0.2-0.99-0.41-1.97-0.63-2.95c0.95-0.3,1.91-0.59,2.87-0.89c0.23,0.97,0.45,1.95,0.65,2.94
		c1.13,5.23,2,10.53,2.57,15.87c6.89,63.13-27.61,125.94-84.48,154.13c-57.68,28.6-128.69,17.79-175.22-26.7
		C26.58,225.47,13.01,154.16,39.65,95.37C66.38,36.4,129.35-0.37,193.91,5.62z"/>
	<path class="st7" d="M278.32,277.68c-44.22,36.72-105.74,45.12-158,23.53c-0.93-0.38-1.86-0.77-2.78-1.18
		c0.46-0.86,0.91-1.71,1.36-2.57c0.92,0.41,1.84,0.81,2.77,1.19c1.59,0.68,3.2,1.33,4.82,1.94c58.07,21.94,125.56,5.12,166.59-41.43
		c41.82-47.44,49.36-117.84,18.75-173.12C281.1,30.55,216.64-0.35,154.14,10.53C91.97,21.34,42,71.08,31.05,133.27
		C20.6,192.59,47.66,253.04,97.49,285.81c0.84,0.56,1.68,1.1,2.53,1.64c-0.46,0.89-0.93,1.77-1.4,2.66
		c-0.85-0.52-1.7-1.06-2.54-1.62c-4.5-2.9-8.86-6.03-13.04-9.4c-49.51-39.77-69.53-108.57-49.25-168.72
		C54.35,49.36,112.21,6.79,176.57,5.35c64.61-1.45,124.63,39.38,147.36,99.79C346.73,165.74,328.2,236.27,278.32,277.68z"/>
</g>
</svg>
