<?xml version="1.0" encoding="utf-8"?>
<!-- Generator: Adobe Illustrator 23.0.1, SVG Export Plug-In . SVG Version: 6.00 Build 0)  -->
<svg version="1.1" id="Calque_1" xmlns="http://www.w3.org/2000/svg" xmlns:xlink="http://www.w3.org/1999/xlink" x="0px" y="0px"
	 viewBox="0 0 1360 660" style="enable-background:new 0 0 1360 660;" xml:space="preserve">
<style type="text/css">
	.st0{fill:#FFFFFF;}
	.st1{fill:#808080;}
	.st2{fill:#F59DB2;}
	.st3{fill:#AADFF1;}
	.st4{fill:#FBB57F;}
	.st5{fill:#FCEC98;}
	.st6{fill:url(#SVGID_1_);}
	.st7{fill:url(#SVGID_2_);}
	.st8{fill:url(#SVGID_3_);}
	.st9{fill:url(#SVGID_4_);}
	.st10{fill:url(#SVGID_5_);}
	.st11{fill:url(#SVGID_6_);}
	.st12{fill:url(#SVGID_7_);}
	.st13{fill:url(#SVGID_8_);}
	.st14{fill:url(#SVGID_9_);}
	.st15{fill:url(#SVGID_10_);}
	.st16{fill:url(#SVGID_11_);}
	.st17{fill:url(#SVGID_12_);}
	.st18{fill:url(#SVGID_13_);}
</style>
<g id="Sucette">
	<path class="st0" d="M872.64,248.23c-6.8,12.91-13.59,25.83-20.39,38.74c-16.32,31.02-32.65,62.04-48.97,93.05
		c-19.76,37.54-39.51,75.08-59.27,112.62c-17.09,32.48-34.18,64.96-51.27,97.43c-8.32,15.82-17.02,31.5-25,47.5
		c-0.12,0.23-0.24,0.46-0.37,0.7c-3.07,5.83-1.49,13.26,4.38,16.69c5.5,3.22,13.61,1.47,16.68-4.37
		c6.8-12.91,13.59-25.83,20.39-38.74c16.32-31.02,32.65-62.04,48.97-93.05c19.76-37.54,39.51-75.08,59.27-112.62
		c17.09-32.48,34.18-64.96,51.27-97.43c8.32-15.82,17.02-31.5,25-47.5c0.12-0.23,0.24-0.46,0.37-0.7
		c3.07-5.83,1.49-13.26-4.37-16.69C883.82,240.64,875.72,242.38,872.64,248.23L872.64,248.23z"/>
	<path class="st1" d="M881.96,240.82c-4.44,0.39-8.12,2.72-10.48,6.44c-0.05,0.07-0.09,0.15-0.14,0.22
		c-0.03,0.06-0.07,0.13-0.1,0.19c-23.34,44.34-46.67,88.69-70.01,133.03c-0.47,0.89-0.94,1.79-1.41,2.68
		c-8.23,15.64-16.46,31.28-24.69,46.92c-31.61,60.08-62.96,120.3-94.96,180.17c-3.92,7.32-7.81,14.66-11.57,22.07
		c-2.3,4.54-4.91,8.87-4.05,14.15c1.56,9.57,12.48,14.31,20.72,9.31c5.37-3.28,7.69-10.79,10.49-16.11
		c4.01-7.63,8.03-15.26,12.04-22.89c8.01-15.22,16.02-30.44,24.03-45.66c30.75-58.42,61.49-116.83,92.23-175.24
		c0.45-0.85,0.9-1.71,1.35-2.56c0.7-1.34,1.41-2.67,2.11-4.01c15.82-30.07,31.49-60.22,47.51-90.19c3.91-7.33,7.86-14.64,11.72-22
		c3.14-5.97,7.45-12.29,9.38-18.8C898.86,249.32,891.68,239.97,881.96,240.82z M887.7,269.02c-7.03,13.65-14.42,27.11-21.57,40.7
		c-14.35,27.25-28.69,54.51-43.04,81.77c-0.15,0.29-0.3,0.57-0.45,0.86c-0.45,0.86-0.9,1.71-1.36,2.57
		c-28.36,53.92-56.73,107.82-85.11,161.74c-14.49,27.53-28.98,55.07-43.47,82.6c-3.38,6.43-6.12,15.81-14.86,15.79
		c-8.54-0.02-12.4-8.86-9.17-16.02c6.01-13.29,13.56-26.03,20.42-38.88c29.25-54.77,57.87-109.87,86.78-164.81
		c8.83-16.78,17.66-33.56,26.49-50.34c0.47-0.89,0.94-1.77,1.4-2.66c23.39-44.45,46.79-88.9,70.18-133.35
		c4.11-6.75,14.6-7.1,18.51,0.18C896.11,255.99,890.75,263.11,887.7,269.02z"/>
	<path class="st2" d="M837.98,108.8c-18.63,5.78-23.16,28.14-32.96,46.76c-18.63,5.78-46.95,9.2-56.76,27.83
		C767.87,146.14,800.72,120.37,837.98,108.8z"/>
	<path class="st3" d="M748.27,183.39c-9.81,18.63,31.74,40.23,37.52,58.87c-9.8,18.62-53.98,38.69-48.2,57.31
		C726.02,262.32,728.66,220.64,748.27,183.39z"/>
	<path class="st4" d="M812.18,389.29c-37.25-19.6-63.03-52.45-74.59-89.71c5.78,18.63,59.51-17.18,78.14-7.38
		C821.5,310.83,793.55,379.48,812.18,389.29z"/>
	<path class="st5" d="M928.36,399.97c-37.26,11.57-78.93,8.92-116.18-10.68c18.63,9.81,43.57-48.37,62.21-54.15
		C893.01,344.94,909.73,405.75,928.36,399.97z"/>
	<path class="st2" d="M1018.07,325.38c-19.6,37.25-52.45,63.03-89.71,74.59c18.63-5.78,12.45-59.51,22.26-78.13
		C969.26,316.05,1008.27,344.01,1018.07,325.38z"/>
	<path class="st3" d="M1028.76,209.2c11.57,37.26,8.92,78.93-10.68,116.18c9.81-18.63-35.5-39.46-41.29-58.09
		C986.58,248.66,1034.54,227.82,1028.76,209.2z"/>
	<path class="st4" d="M1028.76,209.2c-5.78-18.63-61.86,20.33-80.48,10.52c-5.78-18.63,24.52-90.43,5.89-100.23
		C991.42,139.09,1017.19,171.94,1028.76,209.2z"/>
	<path class="st5" d="M954.16,119.48c-18.63-9.81-43.57,34.33-62.21,40.12c-18.62-9.8-35.35-56.58-53.98-50.8
		C875.24,97.24,916.91,99.88,954.16,119.48z"/>
	<path class="st5" d="M991.46,164.34c5.78,18.63,4.46,39.47-5.34,58.1c-9.79,18.62-26.22,31.51-44.84,37.3
		c-18.63,5.78-39.48,4.46-58.11-5.34c-18.63-9.81-31.52-26.24-37.31-44.87c-5.77-18.63-4.45-39.47,5.35-58.08
		c19.6-37.25,65.7-51.56,102.95-31.95C972.78,129.28,985.68,145.7,991.46,164.34z"/>
	<path class="st2" d="M933.37,159c5.78,18.63,4.46,39.46-5.35,58.09l-0.01,0.01c-9.81,18.62-26.22,31.51-44.84,37.29
		c-18.63,5.78-39.45,4.45-58.08-5.34l-0.01-0.01c-18.63-9.81-31.52-26.23-37.3-44.85c-5.78-18.63-4.46-39.46,5.35-58.09
		c9.81-18.63,26.23-31.52,44.85-37.3c18.63-5.78,39.46-4.46,58.09,5.35C914.7,123.95,927.58,140.37,933.37,159z"/>
	<path class="st3" d="M888.51,196.28c5.78,18.63,4.46,39.48-5.34,58.11c-9.81,18.63-26.24,31.52-44.87,37.31
		c-18.63,5.77-39.47,4.45-58.08-5.35c-18.63-9.81-31.52-26.24-37.3-44.86c-5.78-18.63-4.45-39.47,5.35-58.09s26.22-31.51,44.85-37.3
		c18.63-5.78,39.47-4.46,58.1,5.34C869.84,161.23,882.72,177.66,888.51,196.28z"/>
	<path class="st4" d="M883.17,254.39c5.78,18.63,4.46,39.46-5.35,58.09c-9.81,18.63-26.23,31.52-44.85,37.3
		c-18.63,5.78-39.46,4.46-58.09-5.35l-0.01-0.01c-18.62-9.81-31.51-26.22-37.29-44.84c-5.78-18.63-4.46-39.46,5.34-58.08l0.01-0.01
		c0.31-0.6,0.63-1.17,0.96-1.75c0.31-0.57,0.63-1.12,0.96-1.67c0.31-0.53,0.64-1.06,0.97-1.59c0.38-0.61,0.76-1.21,1.16-1.79
		c0.26-0.4,0.52-0.79,0.8-1.17c0.81-1.17,1.65-2.31,2.5-3.42c0.77-1.01,1.58-1.98,2.41-2.94c0.64-0.74,1.3-1.48,1.97-2.2
		c0.47-0.51,0.94-1.01,1.43-1.49c0.95-0.96,1.9-1.89,2.9-2.79c0.24-0.22,0.48-0.44,0.72-0.65c0.15-0.14,0.3-0.27,0.46-0.41
		c0.56-0.49,1.13-0.98,1.71-1.46c0.64-0.52,1.28-1.03,1.93-1.53c0.04-0.03,0.09-0.07,0.15-0.11c0.64-0.5,1.3-0.98,1.96-1.46
		c0.69-0.49,1.38-0.97,2.08-1.44c1.02-0.68,2.06-1.34,3.11-1.98c0.53-0.31,1.05-0.62,1.59-0.92c0.35-0.2,0.71-0.41,1.07-0.6
		c0.29-0.16,0.58-0.32,0.87-0.47c0.35-0.18,0.71-0.37,1.06-0.55c0.18-0.09,0.35-0.18,0.53-0.26c0.45-0.23,0.89-0.45,1.35-0.66
		c0.89-0.43,1.79-0.83,2.69-1.21c0.32-0.14,0.63-0.28,0.95-0.41c0.15-0.06,0.29-0.12,0.44-0.18c0.43-0.18,0.88-0.35,1.32-0.52
		c0.45-0.17,0.89-0.34,1.34-0.5c0.52-0.19,1.04-0.38,1.57-0.55c0.62-0.22,1.26-0.42,1.89-0.62c0.63-0.2,1.27-0.38,1.91-0.56
		c0.54-0.16,1.07-0.3,1.61-0.44c0.46-0.12,0.93-0.23,1.39-0.35c0.46-0.11,0.92-0.22,1.38-0.32c0.16-0.04,0.31-0.06,0.47-0.1
		c0.34-0.07,0.67-0.13,1.01-0.2c0.96-0.2,1.93-0.37,2.9-0.53c0.5-0.08,0.98-0.16,1.49-0.22c0.19-0.04,0.39-0.06,0.58-0.08
		c0.4-0.05,0.8-0.1,1.19-0.15c0.33-0.04,0.66-0.08,0.99-0.1c0.4-0.05,0.82-0.08,1.22-0.11c0.61-0.06,1.21-0.1,1.83-0.14
		c1.22-0.07,2.45-0.11,3.68-0.13c0.85-0.01,1.69,0,2.54,0.01c0.82,0.02,1.63,0.05,2.44,0.09c0.06,0,0.13,0,0.18,0.01
		c0.82,0.04,1.64,0.11,2.46,0.17c0.74,0.07,1.49,0.14,2.23,0.23c0.21,0.02,0.41,0.04,0.61,0.08c0.32,0.04,0.64,0.08,0.96,0.13
		c1.33,0.18,2.65,0.4,3.97,0.66c0.68,0.12,1.35,0.26,2.02,0.41c0.96,0.21,1.92,0.45,2.87,0.7c1.23,0.32,2.44,0.67,3.65,1.06
		c1.33,0.43,2.67,0.89,4,1.4c0.44,0.16,0.88,0.33,1.32,0.52c0.65,0.25,1.31,0.53,1.97,0.82c0.57,0.25,1.13,0.5,1.69,0.76
		c0.58,0.27,1.16,0.54,1.74,0.83c0.6,0.29,1.18,0.59,1.78,0.9C864.5,219.34,877.39,235.76,883.17,254.39z"/>
	<path class="st5" d="M920.47,299.24c5.78,18.63,4.46,39.47-5.34,58.1c-9.79,18.62-26.22,31.51-44.84,37.3
		c-18.63,5.78-39.48,4.46-58.11-5.34c-18.63-9.81-31.52-26.24-37.31-44.87c-5.77-18.63-4.45-39.47,5.35-58.08
		c19.6-37.25,65.7-51.56,102.95-31.95C901.79,264.19,914.69,280.6,920.47,299.24z"/>
	<path class="st2" d="M978.56,304.58c5.78,18.63,4.46,39.46-5.35,58.09l-0.01,0.01c-9.81,18.62-26.22,31.51-44.84,37.29
		c-18.63,5.78-39.45,4.45-58.08-5.34l-0.01-0.01c-18.63-9.81-31.52-26.23-37.3-44.85c-5.78-18.63-4.46-39.46,5.35-58.09
		c9.81-18.63,26.23-31.52,44.85-37.3c18.63-5.78,39.46-4.46,58.09,5.35C959.89,269.54,972.78,285.96,978.56,304.58z"/>
	<path class="st3" d="M1023.42,267.27c5.78,18.63,4.46,39.48-5.34,58.11c-9.81,18.63-26.24,31.52-44.87,37.31
		c-18.63,5.77-39.47,4.45-58.08-5.35c-18.63-9.81-31.52-26.24-37.3-44.86c-5.78-18.63-4.45-39.47,5.35-58.09
		c9.8-18.62,26.22-31.51,44.85-37.3c18.63-5.78,39.47-4.46,58.1,5.34C1004.74,232.22,1017.62,248.65,1023.42,267.27z"/>
	<path class="st4" d="M1028.76,209.2c5.78,18.63,4.45,39.45-5.34,58.08l-0.01,0.01c-9.81,18.63-26.23,31.52-44.85,37.3
		c-18.63,5.78-39.46,4.46-58.09-5.35c-18.63-9.81-31.52-26.23-37.3-44.85c-5.78-18.63-4.46-39.46,5.35-58.09
		c9.81-18.63,26.23-31.52,44.85-37.3c18.63-5.78,39.46-4.46,58.09,5.35l0.01,0.01C1010.09,174.16,1022.98,190.57,1028.76,209.2z"/>
	<path class="st5" d="M991.47,164.35c5.77,18.63,4.45,39.47-5.35,58.08c-9.81,18.63-26.24,31.52-44.86,37.3
		c-18.63,5.78-39.47,4.45-58.09-5.35c18.63-5.78,35.05-18.67,44.85-37.3c0.31-0.59,0.61-1.18,0.9-1.78
		c0.29-0.58,0.57-1.15,0.83-1.74c0.26-0.56,0.51-1.13,0.76-1.69c0.28-0.64,0.55-1.3,0.81-1.95c0.24-0.57,0.45-1.14,0.67-1.72
		c1.99-5.29,3.34-10.7,4.08-16.12c0.05-0.32,0.09-0.64,0.13-0.96c0,0,0-0.01,0-0.01c0.16-0.98,0.24-1.97,0.32-2.96
		c0.06-0.78,0.12-1.55,0.16-2.33c0.01-0.07,0.02-0.12,0.01-0.18c0.05-0.81,0.07-1.63,0.09-2.44c0.01-0.85,0.02-1.69,0.01-2.54
		c-0.02-1.23-0.06-2.46-0.13-3.68c-0.04-0.61-0.09-1.22-0.14-1.83c-0.03-0.41-0.06-0.82-0.11-1.22c-0.03-0.33-0.07-0.66-0.1-0.99
		c-0.05-0.39-0.1-0.79-0.15-1.19c-0.03-0.2-0.05-0.41-0.08-0.61c-0.06-0.47-0.13-0.94-0.21-1.4c-0.01-0.06-0.02-0.12-0.02-0.17
		c-0.15-0.93-0.32-1.86-0.51-2.78c-0.06-0.34-0.13-0.68-0.2-1.02c-0.03-0.14-0.06-0.28-0.09-0.41c-0.1-0.49-0.22-0.98-0.33-1.45
		c-0.1-0.47-0.22-0.92-0.34-1.37c-0.14-0.54-0.28-1.07-0.44-1.61c-0.18-0.64-0.37-1.28-0.56-1.91c-0.2-0.63-0.4-1.27-0.62-1.89
		c-0.18-0.53-0.36-1.05-0.55-1.57c-0.16-0.44-0.32-0.88-0.5-1.33c-0.17-0.46-0.35-0.92-0.55-1.38c-0.05-0.12-0.1-0.26-0.15-0.39
		c-0.13-0.32-0.27-0.64-0.41-0.96c-0.36-0.87-0.75-1.73-1.15-2.58c-0.02-0.05-0.05-0.1-0.08-0.16c-0.2-0.43-0.4-0.85-0.62-1.28
		c-0.09-0.19-0.19-0.37-0.28-0.55c-0.19-0.36-0.37-0.71-0.55-1.06c-0.15-0.29-0.31-0.59-0.47-0.87c-0.19-0.36-0.39-0.72-0.6-1.07
		c-0.3-0.53-0.61-1.07-0.92-1.59c-0.63-1.05-1.3-2.09-1.98-3.11c-0.47-0.7-0.95-1.4-1.44-2.08c-0.48-0.66-0.96-1.32-1.46-1.96
		c-0.03-0.06-0.06-0.1-0.11-0.15c-0.47-0.62-0.96-1.23-1.46-1.83c-0.62-0.77-1.25-1.54-1.94-2.26c0,0-0.01-0.01-0.01-0.01
		c-0.21-0.24-0.43-0.48-0.65-0.72c-3.34-3.67-7.08-7.04-11.2-10.05c-0.43-0.31-0.86-0.63-1.3-0.93c-0.5-0.35-1-0.7-1.52-1.04
		c-0.58-0.39-1.18-0.78-1.77-1.15c-0.53-0.33-1.05-0.65-1.59-0.97c-0.55-0.33-1.11-0.65-1.67-0.96c-0.58-0.33-1.17-0.65-1.75-0.96
		l-0.01-0.01c18.63-5.78,39.48-4.46,58.11,5.34C972.8,129.29,985.69,145.72,991.47,164.35z"/>
	<path class="st2" d="M933.37,159c0.2,0.63,0.38,1.27,0.56,1.91c0.16,0.54,0.3,1.07,0.44,1.61c0.12,0.45,0.24,0.91,0.34,1.37
		c0.12,0.47,0.23,0.96,0.33,1.45c0.03,0.13,0.06,0.27,0.09,0.41c0.07,0.34,0.14,0.68,0.2,1.02c0.19,0.92,0.36,1.85,0.51,2.78
		c0.01,0.05,0.01,0.11,0.02,0.17c0.08,0.46,0.14,0.94,0.21,1.4c0.03,0.2,0.05,0.41,0.08,0.61c0.05,0.4,0.1,0.8,0.15,1.19
		c0.04,0.33,0.08,0.66,0.1,0.99c0.04,0.41,0.08,0.82,0.11,1.22c0.05,0.61,0.1,1.22,0.14,1.83c0.07,1.23,0.12,2.45,0.13,3.68
		c0.01,0.85,0,1.69-0.01,2.54c-0.02,0.82-0.05,1.63-0.09,2.44c0.01,0.06,0,0.12-0.01,0.18c-0.04,0.82-0.11,1.64-0.17,2.46
		c-0.07,0.74-0.14,1.49-0.23,2.23c-0.02,0.2-0.04,0.41-0.08,0.61c-0.04,0.32-0.08,0.64-0.13,0.96c-0.74,5.42-2.1,10.83-4.08,16.12
		c-0.21,0.58-0.43,1.14-0.67,1.72c-0.25,0.65-0.53,1.31-0.81,1.95c-0.25,0.57-0.5,1.13-0.76,1.69c-0.27,0.58-0.54,1.16-0.83,1.74
		c-0.29,0.6-0.6,1.2-0.9,1.78c-9.81,18.63-26.23,31.52-44.85,37.3c9.8-18.62,11.13-39.45,5.35-58.09
		c-5.78-18.63-18.67-35.05-37.3-44.86c-18.61-9.8-39.45-11.12-58.08-5.35c9.8-18.62,26.22-31.51,44.84-37.29
		c18.63-5.78,39.46-4.46,58.08,5.34l0.01,0.01c0.59,0.31,1.17,0.63,1.75,0.96c0.57,0.31,1.12,0.63,1.67,0.96
		c0.53,0.31,1.06,0.64,1.59,0.97c0.59,0.37,1.19,0.76,1.77,1.15c0.52,0.34,1.02,0.68,1.52,1.04c0.44,0.3,0.87,0.61,1.3,0.93
		c4.12,3.01,7.85,6.38,11.2,10.05c0.22,0.24,0.44,0.48,0.65,0.72c0.14,0.15,0.28,0.31,0.41,0.46c0.49,0.56,0.98,1.13,1.46,1.71
		c0.52,0.64,1.03,1.28,1.53,1.93c0.05,0.05,0.08,0.09,0.11,0.15c0.5,0.64,0.98,1.3,1.46,1.96c0.49,0.69,0.97,1.38,1.44,2.08
		c0.69,1.02,1.34,2.05,1.98,3.11c0.31,0.52,0.61,1.05,0.92,1.59c0.2,0.35,0.4,0.71,0.6,1.07c0.16,0.29,0.32,0.58,0.47,0.87
		c0.18,0.35,0.37,0.71,0.55,1.06c0.09,0.19,0.19,0.37,0.28,0.55c0.21,0.43,0.42,0.85,0.62,1.28c0.03,0.06,0.06,0.11,0.08,0.16
		c0.4,0.85,0.79,1.71,1.15,2.58c0.14,0.32,0.28,0.64,0.41,0.96c0.05,0.13,0.1,0.27,0.15,0.39c0.2,0.46,0.37,0.93,0.55,1.38
		c0.18,0.44,0.34,0.88,0.5,1.33c0.19,0.52,0.38,1.04,0.55,1.57C932.97,157.73,933.17,158.37,933.37,159z"/>
	<path class="st3" d="M888.52,196.3c5.78,18.63,4.45,39.47-5.35,58.09c-5.78-18.63-18.67-35.05-37.3-44.85
		c-0.6-0.31-1.18-0.61-1.78-0.9c-0.58-0.29-1.16-0.57-1.74-0.83c-0.56-0.26-1.13-0.51-1.69-0.76c-0.65-0.29-1.31-0.56-1.97-0.82
		c-0.44-0.18-0.88-0.36-1.32-0.52c-1.33-0.5-2.66-0.97-4-1.4c-1.22-0.39-2.43-0.74-3.65-1.06c-0.95-0.25-1.91-0.48-2.87-0.7
		c-0.68-0.15-1.35-0.29-2.02-0.41c-1.33-0.26-2.64-0.48-3.97-0.66c-0.32-0.05-0.64-0.09-0.96-0.13c-0.2-0.03-0.4-0.06-0.61-0.08
		c-0.74-0.09-1.49-0.17-2.23-0.23c-0.82-0.07-1.64-0.13-2.46-0.17c-0.05,0-0.12-0.01-0.18-0.01c-0.81-0.05-1.63-0.07-2.44-0.09
		c-0.85-0.01-1.69-0.02-2.54-0.01c-1.23,0.01-2.45,0.06-3.68,0.13c-0.61,0.04-1.22,0.08-1.83,0.14c-0.41,0.03-0.82,0.06-1.22,0.11
		c-0.33,0.03-0.66,0.07-0.99,0.1c-0.39,0.05-0.79,0.1-1.19,0.15c-0.19,0.03-0.39,0.05-0.58,0.08c-0.5,0.06-0.99,0.14-1.49,0.22
		c-0.97,0.15-1.94,0.33-2.9,0.53c-0.34,0.06-0.67,0.12-1.01,0.2c-0.16,0.04-0.31,0.06-0.47,0.1c-0.46,0.1-0.92,0.21-1.38,0.32
		c-0.47,0.1-0.93,0.22-1.39,0.35c-0.54,0.14-1.07,0.28-1.61,0.44c-0.64,0.18-1.28,0.37-1.91,0.56c-0.63,0.2-1.27,0.4-1.89,0.62
		c-0.53,0.18-1.05,0.36-1.57,0.55c-0.45,0.16-0.9,0.32-1.34,0.5c-0.44,0.17-0.88,0.34-1.32,0.52c-0.15,0.06-0.29,0.12-0.44,0.18
		c-0.32,0.13-0.63,0.27-0.95,0.41c-0.9,0.38-1.8,0.78-2.69,1.21c-0.45,0.22-0.9,0.43-1.35,0.66c-0.18,0.08-0.35,0.17-0.53,0.26
		c-0.36,0.19-0.71,0.37-1.06,0.55c-0.29,0.15-0.59,0.31-0.87,0.47c-0.36,0.19-0.72,0.39-1.07,0.6c-0.54,0.29-1.06,0.6-1.59,0.92
		c-1.06,0.64-2.09,1.29-3.11,1.98c-0.7,0.47-1.4,0.95-2.08,1.44c-0.66,0.48-1.32,0.96-1.96,1.46c-0.05,0.04-0.1,0.07-0.15,0.11
		c-0.65,0.5-1.29,1.02-1.93,1.53c-0.58,0.48-1.15,0.96-1.71,1.46c-0.16,0.13-0.31,0.27-0.46,0.41c-0.24,0.21-0.48,0.43-0.72,0.65
		c-1,0.91-1.95,1.83-2.9,2.79c-0.49,0.48-0.96,0.98-1.43,1.49c-0.67,0.72-1.33,1.45-1.97,2.2c-0.82,0.95-1.62,1.93-2.41,2.94
		c-0.86,1.11-1.7,2.25-2.5,3.42c-0.27,0.38-0.54,0.77-0.8,1.17c-0.39,0.58-0.78,1.18-1.16,1.79c-0.33,0.53-0.65,1.05-0.97,1.59
		c-0.33,0.55-0.65,1.11-0.96,1.67c-0.33,0.58-0.64,1.16-0.96,1.75l-0.01,0.01c-5.78-18.63-4.46-39.48,5.34-58.11
		c9.81-18.63,26.24-31.52,44.87-37.31c18.63-5.77,39.47-4.45,58.08,5.35C869.85,161.24,882.74,177.67,888.52,196.3z"/>
	<path class="st1" d="M982.06,372.57c-44.22,36.72-105.74,45.12-158,23.53c-0.93-0.38-1.86-0.77-2.78-1.18
		c0.46-0.86,0.91-1.71,1.36-2.57c0.92,0.41,1.84,0.81,2.77,1.19c1.59,0.68,3.2,1.33,4.82,1.94c58.07,21.94,125.56,5.12,166.59-41.43
		c41.82-47.44,49.36-117.84,18.75-173.12c-30.73-55.49-95.19-86.39-157.69-75.51c-62.17,10.81-112.14,60.55-123.09,122.74
		c-10.45,59.32,16.61,119.77,66.44,152.54c0.84,0.56,1.68,1.1,2.53,1.64c-0.46,0.89-0.93,1.77-1.4,2.66
		c-0.85-0.52-1.7-1.06-2.54-1.62c-4.5-2.9-8.86-6.03-13.04-9.4c-49.51-39.77-69.53-108.57-49.25-168.72
		c20.56-61.01,78.42-103.58,142.78-105.02c64.61-1.45,124.63,39.38,147.36,99.79C1050.47,260.63,1031.94,331.16,982.06,372.57z"/>
</g>
<g>
	<g>
		<linearGradient id="SVGID_1_" gradientUnits="userSpaceOnUse" x1="4.6462" y1="302.8866" x2="310.1956" y2="302.8866">
			<stop  offset="0" style="stop-color:#FFFFFF"/>
			<stop  offset="1" style="stop-color:#000000"/>
		</linearGradient>
		<path class="st6" d="M157.74,101.92c20.57,0,40.1,4,58.59,11.97c18.48,7.98,34.65,18.9,48.51,32.76
			c13.86,13.86,24.89,30.03,33.08,48.51c8.19,18.49,12.29,38.22,12.29,59.22c0,21.01-3.89,40.74-11.66,59.22
			c-7.78,18.49-18.49,34.65-32.13,48.51c-13.65,13.86-29.83,24.79-48.51,32.76c-18.69,7.98-38.75,11.97-60.16,11.97
			c-26.46,0-56.7-8.6-90.72-25.83v92.61c0,8.4-2.94,15.53-8.82,21.42c-5.89,5.88-13.45,8.82-22.68,8.82
			c-7.98,0-15.02-2.74-21.11-8.19c-6.09-5.46-9.35-12.19-9.76-20.16V254.38c0-20.57,4.09-40.1,12.29-58.59
			c8.19-18.48,19.21-34.65,33.08-48.51c13.86-13.86,30.02-24.88,48.51-33.07C116.99,106.01,136.73,101.92,157.74,101.92z
			 M67.02,254.38c0,13.45,2.41,25.73,7.25,36.85c4.82,11.13,11.44,20.79,19.84,28.98c8.4,8.19,18.05,14.49,28.98,18.9
			c10.92,4.41,22.46,6.62,34.65,6.62c12.6,0,24.46-2.41,35.59-7.25c11.12-4.82,20.68-11.44,28.67-19.84
			c7.97-8.4,14.27-18.05,18.9-28.98c4.62-10.92,6.93-22.68,6.93-35.28c0-12.6-2.42-24.35-7.25-35.28
			c-4.83-10.92-11.34-20.48-19.53-28.67c-8.19-8.19-17.75-14.59-28.67-19.22c-10.93-4.62-22.47-6.93-34.65-6.93
			c-13.02,0-24.99,2.42-35.91,7.25c-10.93,4.83-20.47,11.34-28.67,19.53c-8.19,8.19-14.6,17.75-19.21,28.67
			C69.32,230.65,67.02,242.2,67.02,254.38z"/>
		<path class="st2" d="M389.57,36.4c0,9.24-3.15,17.12-9.45,23.63c-6.3,6.52-13.86,9.77-22.68,9.77c-9.24,0-17.12-3.25-23.63-9.77
			c-6.52-6.51-9.76-14.38-9.76-23.63c0-8.82,3.25-16.48,9.76-23c6.51-6.51,14.38-9.76,23.63-9.76c8.82,0,16.38,3.26,22.68,9.76
			C386.42,19.92,389.57,27.58,389.57,36.4z M357.44,406.21c-9.24,0-17.12-3.15-23.63-9.45c-6.52-6.3-9.76-14.27-9.76-23.94V135.94
			c0-9.23,3.25-17.01,9.76-23.31c6.51-6.3,14.38-9.45,23.63-9.45c8.4,0,15.85,3.15,22.37,9.45c6.51,6.3,9.77,14.08,9.77,23.31
			v236.88c0,9.67-3.26,17.64-9.77,23.94C373.29,403.06,365.84,406.21,357.44,406.21z"/>
		<path class="st2" d="M564.08,101.92c20.57,0,40.1,4,58.59,11.97c18.48,7.98,34.65,18.9,48.51,32.76
			c13.86,13.86,24.89,30.03,33.08,48.51c8.19,18.49,12.29,38.22,12.29,59.22c0,21.01-3.89,40.74-11.66,59.22
			c-7.78,18.49-18.49,34.65-32.13,48.51c-13.65,13.86-29.83,24.79-48.51,32.76c-18.69,7.98-38.75,11.97-60.17,11.97
			c-26.46,0-56.7-8.6-90.72-25.83v92.61c0,8.4-2.94,15.53-8.82,21.42c-5.89,5.88-13.45,8.82-22.68,8.82
			c-7.98,0-15.02-2.74-21.11-8.19c-6.09-5.46-9.35-12.19-9.76-20.16V254.38c0-20.57,4.09-40.1,12.29-58.59
			c8.19-18.48,19.21-34.65,33.08-48.51c13.86-13.86,30.02-24.88,48.51-33.07C523.34,106.01,543.07,101.92,564.08,101.92z
			 M473.36,254.38c0,13.45,2.41,25.73,7.25,36.85c4.82,11.13,11.44,20.79,19.84,28.98c8.4,8.19,18.05,14.49,28.98,18.9
			c10.92,4.41,22.46,6.62,34.65,6.62c12.6,0,24.46-2.41,35.59-7.25c11.12-4.82,20.68-11.44,28.67-19.84
			c7.97-8.4,14.27-18.05,18.9-28.98c4.62-10.92,6.93-22.68,6.93-35.28c0-12.6-2.42-24.35-7.25-35.28
			c-4.83-10.92-11.34-20.48-19.53-28.67c-8.19-8.19-17.75-14.59-28.67-19.22c-10.93-4.62-22.47-6.93-34.65-6.93
			c-13.02,0-24.99,2.42-35.91,7.25c-10.93,4.83-20.47,11.34-28.67,19.53c-8.19,8.19-14.6,17.75-19.21,28.67
			C475.66,230.65,473.36,242.2,473.36,254.38z"/>
		<path class="st2" d="M1202.89,101.92c20.57,0,40.1,4,58.59,11.97c18.48,7.98,34.65,18.9,48.51,32.76
			c13.86,13.86,24.89,30.03,33.08,48.51c8.19,18.49,12.29,38.22,12.29,59.22c0,21.01-3.89,40.74-11.66,59.22
			c-7.78,18.49-18.49,34.65-32.13,48.51c-13.65,13.86-29.83,24.79-48.51,32.76c-18.69,7.98-38.75,11.97-60.17,11.97
			c-26.46,0-56.7-8.6-90.72-25.83v92.61c0,8.4-2.94,15.53-8.82,21.42c-5.89,5.88-13.45,8.82-22.68,8.82
			c-7.98,0-15.02-2.74-21.11-8.19c-6.09-5.46-9.35-12.19-9.76-20.16V254.38c0-20.57,4.09-40.1,12.29-58.59
			c8.19-18.48,19.21-34.65,33.08-48.51c13.86-13.86,30.02-24.88,48.51-33.07C1162.15,106.01,1181.89,101.92,1202.89,101.92z
			 M1112.17,254.38c0,13.45,2.41,25.73,7.25,36.85c4.82,11.13,11.44,20.79,19.84,28.98c8.4,8.19,18.05,14.49,28.98,18.9
			c10.92,4.41,22.46,6.62,34.65,6.62c12.6,0,24.46-2.41,35.59-7.25c11.12-4.82,20.68-11.44,28.67-19.84
			c7.97-8.4,14.27-18.05,18.9-28.98c4.62-10.92,6.93-22.68,6.93-35.28c0-12.6-2.42-24.35-7.25-35.28
			c-4.83-10.92-11.34-20.48-19.53-28.67c-8.19-8.19-17.75-14.59-28.67-19.22c-10.93-4.62-22.47-6.93-34.65-6.93
			c-13.02,0-24.99,2.42-35.91,7.25c-10.93,4.83-20.47,11.34-28.67,19.53c-8.19,8.19-14.6,17.75-19.21,28.67
			C1114.48,230.65,1112.17,242.2,1112.17,254.38z"/>
	</g>
	<g>
		<linearGradient id="SVGID_2_" gradientUnits="userSpaceOnUse" x1="4.6462" y1="253.7467" x2="1355.3538" y2="253.7467">
			<stop  offset="0" style="stop-color:#F59DB2"/>
			<stop  offset="0.3333" style="stop-color:#FCEC98"/>
			<stop  offset="0.6666" style="stop-color:#FBB57F"/>
			<stop  offset="1" style="stop-color:#AADFF1"/>
		</linearGradient>
		<path class="st7" d="M157.74,101.92c20.57,0,40.1,4,58.59,11.97c18.48,7.98,34.65,18.9,48.51,32.76
			c13.86,13.86,24.89,30.03,33.08,48.51c8.19,18.49,12.29,38.22,12.29,59.22c0,21.01-3.89,40.74-11.66,59.22
			c-7.78,18.49-18.49,34.65-32.13,48.51c-13.65,13.86-29.83,24.79-48.51,32.76c-18.69,7.98-38.75,11.97-60.16,11.97
			c-26.46,0-56.7-8.6-90.72-25.83v92.61c0,8.4-2.94,15.53-8.82,21.42c-5.89,5.88-13.45,8.82-22.68,8.82
			c-7.98,0-15.02-2.74-21.11-8.19c-6.09-5.46-9.35-12.19-9.76-20.16V254.38c0-20.57,4.09-40.1,12.29-58.59
			c8.19-18.48,19.21-34.65,33.08-48.51c13.86-13.86,30.02-24.88,48.51-33.07C116.99,106.01,136.73,101.92,157.74,101.92z
			 M67.02,254.38c0,13.45,2.41,25.73,7.25,36.85c4.82,11.13,11.44,20.79,19.84,28.98c8.4,8.19,18.05,14.49,28.98,18.9
			c10.92,4.41,22.46,6.62,34.65,6.62c12.6,0,24.46-2.41,35.59-7.25c11.12-4.82,20.68-11.44,28.67-19.84
			c7.97-8.4,14.27-18.05,18.9-28.98c4.62-10.92,6.93-22.68,6.93-35.28c0-12.6-2.42-24.35-7.25-35.28
			c-4.83-10.92-11.34-20.48-19.53-28.67c-8.19-8.19-17.75-14.59-28.67-19.22c-10.93-4.62-22.47-6.93-34.65-6.93
			c-13.02,0-24.99,2.42-35.91,7.25c-10.93,4.83-20.47,11.34-28.67,19.53c-8.19,8.19-14.6,17.75-19.21,28.67
			C69.32,230.65,67.02,242.2,67.02,254.38z"/>
		<linearGradient id="SVGID_3_" gradientUnits="userSpaceOnUse" x1="4.6462" y1="253.7467" x2="1355.3538" y2="253.7467">
			<stop  offset="0" style="stop-color:#F59DB2"/>
			<stop  offset="0.3333" style="stop-color:#FCEC98"/>
			<stop  offset="0.6666" style="stop-color:#FBB57F"/>
			<stop  offset="1" style="stop-color:#AADFF1"/>
		</linearGradient>
		<path class="st8" d="M389.57,36.4c0,9.24-3.15,17.12-9.45,23.63c-6.3,6.52-13.86,9.77-22.68,9.77c-9.24,0-17.12-3.25-23.63-9.77
			c-6.52-6.51-9.76-14.38-9.76-23.63c0-8.82,3.25-16.48,9.76-23c6.51-6.51,14.38-9.76,23.63-9.76c8.82,0,16.38,3.26,22.68,9.76
			C386.42,19.92,389.57,27.58,389.57,36.4z M357.44,406.21c-9.24,0-17.12-3.15-23.63-9.45c-6.52-6.3-9.76-14.27-9.76-23.94V135.94
			c0-9.23,3.25-17.01,9.76-23.31c6.51-6.3,14.38-9.45,23.63-9.45c8.4,0,15.85,3.15,22.37,9.45c6.51,6.3,9.77,14.08,9.77,23.31
			v236.88c0,9.67-3.26,17.64-9.77,23.94C373.29,403.06,365.84,406.21,357.44,406.21z"/>
		<linearGradient id="SVGID_4_" gradientUnits="userSpaceOnUse" x1="4.6462" y1="253.7467" x2="1355.3538" y2="253.7467">
			<stop  offset="0" style="stop-color:#F59DB2"/>
			<stop  offset="0.3333" style="stop-color:#FCEC98"/>
			<stop  offset="0.6666" style="stop-color:#FBB57F"/>
			<stop  offset="1" style="stop-color:#AADFF1"/>
		</linearGradient>
		<path class="st9" d="M564.08,101.92c20.57,0,40.1,4,58.59,11.97c18.48,7.98,34.65,18.9,48.51,32.76
			c13.86,13.86,24.89,30.03,33.08,48.51c8.19,18.49,12.29,38.22,12.29,59.22c0,21.01-3.89,40.74-11.66,59.22
			c-7.78,18.49-18.49,34.65-32.13,48.51c-13.65,13.86-29.83,24.79-48.51,32.76c-18.69,7.98-38.75,11.97-60.17,11.97
			c-26.46,0-56.7-8.6-90.72-25.83v92.61c0,8.4-2.94,15.53-8.82,21.42c-5.89,5.88-13.45,8.82-22.68,8.82
			c-7.98,0-15.02-2.74-21.11-8.19c-6.09-5.46-9.35-12.19-9.76-20.16V254.38c0-20.57,4.09-40.1,12.29-58.59
			c8.19-18.48,19.21-34.65,33.08-48.51c13.86-13.86,30.02-24.88,48.51-33.07C523.34,106.01,543.07,101.92,564.08,101.92z
			 M473.36,254.38c0,13.45,2.41,25.73,7.25,36.85c4.82,11.13,11.44,20.79,19.84,28.98c8.4,8.19,18.05,14.49,28.98,18.9
			c10.92,4.41,22.46,6.62,34.65,6.62c12.6,0,24.46-2.41,35.59-7.25c11.12-4.82,20.68-11.44,28.67-19.84
			c7.97-8.4,14.27-18.05,18.9-28.98c4.62-10.92,6.93-22.68,6.93-35.28c0-12.6-2.42-24.35-7.25-35.28
			c-4.83-10.92-11.34-20.48-19.53-28.67c-8.19-8.19-17.75-14.59-28.67-19.22c-10.93-4.62-22.47-6.93-34.65-6.93
			c-13.02,0-24.99,2.42-35.91,7.25c-10.93,4.83-20.47,11.34-28.67,19.53c-8.19,8.19-14.6,17.75-19.21,28.67
			C475.66,230.65,473.36,242.2,473.36,254.38z"/>
		<linearGradient id="SVGID_5_" gradientUnits="userSpaceOnUse" x1="4.6462" y1="253.7467" x2="1355.3538" y2="253.7467">
			<stop  offset="0" style="stop-color:#F59DB2"/>
			<stop  offset="0.3333" style="stop-color:#FCEC98"/>
			<stop  offset="0.6666" style="stop-color:#FBB57F"/>
			<stop  offset="1" style="stop-color:#AADFF1"/>
		</linearGradient>
		<path class="st10" d="M1202.89,101.92c20.57,0,40.1,4,58.59,11.97c18.48,7.98,34.65,18.9,48.51,32.76
			c13.86,13.86,24.89,30.03,33.08,48.51c8.19,18.49,12.29,38.22,12.29,59.22c0,21.01-3.89,40.74-11.66,59.22
			c-7.78,18.49-18.49,34.65-32.13,48.51c-13.65,13.86-29.83,24.79-48.51,32.76c-18.69,7.98-38.75,11.97-60.17,11.97
			c-26.46,0-56.7-8.6-90.72-25.83v92.61c0,8.4-2.94,15.53-8.82,21.42c-5.89,5.88-13.45,8.82-22.68,8.82
			c-7.98,0-15.02-2.74-21.11-8.19c-6.09-5.46-9.35-12.19-9.76-20.16V254.38c0-20.57,4.09-40.1,12.29-58.59
			c8.19-18.48,19.21-34.65,33.08-48.51c13.86-13.86,30.02-24.88,48.51-33.07C1162.15,106.01,1181.89,101.92,1202.89,101.92z
			 M1112.17,254.38c0,13.45,2.41,25.73,7.25,36.85c4.82,11.13,11.44,20.79,19.84,28.98c8.4,8.19,18.05,14.49,28.98,18.9
			c10.92,4.41,22.46,6.62,34.65,6.62c12.6,0,24.46-2.41,35.59-7.25c11.12-4.82,20.68-11.44,28.67-19.84
			c7.97-8.4,14.27-18.05,18.9-28.98c4.62-10.92,6.93-22.68,6.93-35.28c0-12.6-2.42-24.35-7.25-35.28
			c-4.83-10.92-11.34-20.48-19.53-28.67c-8.19-8.19-17.75-14.59-28.67-19.22c-10.93-4.62-22.47-6.93-34.65-6.93
			c-13.02,0-24.99,2.42-35.91,7.25c-10.93,4.83-20.47,11.34-28.67,19.53c-8.19,8.19-14.6,17.75-19.21,28.67
			C1114.48,230.65,1112.17,242.2,1112.17,254.38z"/>
	</g>
	<g>
		<g>
			<path class="st1" d="M157.74,103.42c37.95,0.22,74.7,14.82,102.42,40.79c26.99,25.28,44.97,60.38,48.02,97.36
				c3.15,38.25-8.07,76.82-31.85,107.03c-22.5,28.58-55.52,48.18-91.34,54.44c-41.18,7.2-80.63-4.93-117.22-23.33
				c-1-0.5-2.26,0.1-2.26,1.3c0,30.32,0.1,60.64,0,90.96c-0.04,13.06-6.9,24.85-19.84,28.95C28.03,506.5,7,494.94,6.15,475.5
				c-0.32-7.34,0-14.76,0-22.1c0-38.24,0-76.47,0-114.71c0-27.85-0.05-55.69,0-83.54c0.12-70.35,52.38-134.43,121.43-148.72
				C137.51,104.38,147.6,103.47,157.74,103.42c1.93-0.01,1.93-3.01,0-3C80.98,100.86,12.32,161.48,4.01,238.26
				c-1.23,11.36-0.86,22.89-0.86,34.3c0,17.73,0,35.46,0,53.2c0,41.13,0,82.27,0,123.4c0,8.72-0.36,17.54,0,26.26
				c0.55,13.29,10.25,24.74,22.85,28.58c14.45,4.41,30.96-1.5,38.51-14.71c3.84-6.72,4.01-13.92,4.01-21.36c0-8.77,0-17.55,0-26.32
				c0-18.92,0-37.85,0-56.77c0-1.27,0-2.54,0-3.82c-0.75,0.43-1.5,0.86-2.26,1.3c32.94,16.57,68.63,28.7,105.95,25.41
				c37.41-3.3,73.21-20.48,98.71-48.16c25.85-28.07,40.37-65.21,40.77-103.33c0.4-38.6-14.26-75.9-40.02-104.56
				c-28.98-32.24-70.61-51-113.93-51.25C155.81,100.41,155.8,103.41,157.74,103.42z"/>
			<path class="st1" d="M65.52,254.38c0.31,38.26,22.64,73.03,58.81,86.83c36.64,13.97,79.58,3,104.14-27.72
				c23.8-29.76,27.72-71.79,8.44-104.89c-19.42-33.33-57.76-50.92-95.73-44.42C97.73,171.61,65.93,210.79,65.52,254.38
				c-0.02,1.93,2.98,1.93,3,0c0.35-37.28,23.99-71.02,59.26-83.61c35.14-12.55,75.51-0.9,98.83,28.08
				c23.57,29.29,25.95,70.61,6.56,102.69c-19.54,32.34-57.59,48.54-94.55,40.74c-41.69-8.81-69.75-45.92-70.09-87.9
				C68.5,252.45,65.5,252.44,65.52,254.38z"/>
		</g>
		<g>
			<path class="st1" d="M388.07,36.4c-0.34,16.92-13.1,31.86-30.63,31.89c-17.47,0.03-31.92-14.43-31.89-31.89
				c0.03-17.2,14.82-31.32,31.89-31.26C374.54,5.2,387.72,19.69,388.07,36.4c0.04,1.93,3.04,1.93,3,0
				c-0.29-13.81-8.52-26.88-21.62-32.04c-14.02-5.53-30-0.54-39.35,10.94c-8.83,10.85-10.06,26.67-2.87,38.74
				c7.39,12.41,21.63,19.14,35.89,16.78c16.66-2.75,27.62-18.14,27.95-34.41C391.11,34.47,388.11,34.47,388.07,36.4z"/>
			<path class="st1" d="M357.44,404.71c-18.46-0.37-31.78-14.31-31.89-32.62c-0.03-4.32,0-8.64,0-12.96c0-19.95,0-39.91,0-59.86
				c0-47.9,0-95.8,0-143.7c0-5.6,0-11.19,0-16.79c0-11.58,3.81-22.01,13.84-28.78c20.73-13.98,48.28,1.55,48.68,25.97
				c0.05,3.16,0,6.33,0,9.5c0,44.73,0,89.46,0,134.18c0,22.67,0,45.34,0,68.01c0,6.58,0,13.17,0,19.75c0,6.56,0.02,13.02-2.81,19.19
				C380.29,397.43,369.23,404.43,357.44,404.71c-1.93,0.05-1.93,3.05,0,3c19.19-0.45,33.34-16.12,33.63-34.94
				c0.05-3.45,0-6.9,0-10.35c0-20.59,0-41.17,0-61.76c0-49.84,0-99.67,0-149.51c0-4.76,0.03-9.53,0-14.29
				c-0.08-14.29-7.86-27.17-21.34-32.77c-18.25-7.58-40.53,3.22-45.91,22.21c-1.52,5.36-1.27,10.91-1.27,16.41
				c0,46.46,0,92.92,0,139.38c0,23.31,0,46.61,0,69.92c0,15.3-2.28,32.65,9.15,44.74c6.83,7.23,15.9,10.76,25.74,10.96
				C359.37,407.75,359.37,404.75,357.44,404.71z"/>
		</g>
		<g>
			<path class="st1" d="M564.08,103.42c37.95,0.22,74.7,14.82,102.42,40.79c26.99,25.28,44.97,60.38,48.02,97.36
				c3.15,38.25-8.07,76.82-31.85,107.03c-22.5,28.58-55.52,48.18-91.34,54.44c-41.18,7.2-80.63-4.93-117.22-23.33
				c-1-0.5-2.26,0.1-2.26,1.3c0,30.32,0.1,60.64,0,90.96c-0.04,13.06-6.9,24.85-19.84,28.95c-17.64,5.58-38.67-5.98-39.53-25.41
				c-0.32-7.34,0-14.76,0-22.1c0-38.24,0-76.47,0-114.71c0-27.85-0.05-55.69,0-83.54c0.12-70.35,52.38-134.43,121.43-148.72
				C543.85,104.38,553.94,103.47,564.08,103.42c1.93-0.01,1.93-3.01,0-3c-76.75,0.44-145.41,61.07-153.73,137.84
				c-1.23,11.36-0.86,22.89-0.86,34.3c0,17.73,0,35.46,0,53.2c0,41.13,0,82.27,0,123.4c0,8.72-0.36,17.54,0,26.26
				c0.55,13.29,10.25,24.74,22.85,28.58c14.45,4.41,30.96-1.5,38.51-14.71c3.84-6.72,4.01-13.92,4.01-21.36c0-8.77,0-17.55,0-26.32
				c0-18.92,0-37.85,0-56.77c0-1.27,0-2.54,0-3.82c-0.75,0.43-1.5,0.86-2.26,1.3c32.94,16.57,68.63,28.7,105.95,25.41
				c37.41-3.3,73.21-20.48,98.71-48.16c25.85-28.07,40.37-65.21,40.77-103.33c0.4-38.6-14.26-75.9-40.02-104.56
				c-28.98-32.24-70.61-51-113.93-51.25C562.15,100.41,562.15,103.41,564.08,103.42z"/>
			<path class="st1" d="M471.86,254.38c0.31,38.26,22.64,73.03,58.81,86.83c36.64,13.97,79.58,3,104.14-27.72
				c23.8-29.76,27.72-71.79,8.44-104.89c-19.42-33.33-57.76-50.92-95.73-44.42C504.08,171.61,472.27,210.79,471.86,254.38
				c-0.02,1.93,2.98,1.93,3,0c0.35-37.28,23.99-71.02,59.26-83.61c35.14-12.55,75.51-0.9,98.83,28.08
				c23.57,29.29,25.95,70.61,6.56,102.69c-19.54,32.34-57.59,48.54-94.55,40.74c-41.69-8.81-69.75-45.92-70.09-87.9
				C474.84,252.45,471.84,252.44,471.86,254.38z"/>
		</g>
		<g>
			<path class="st1" d="M1202.89,103.42c37.95,0.22,74.7,14.82,102.42,40.79c26.99,25.28,44.97,60.38,48.02,97.36
				c3.15,38.25-8.07,76.82-31.85,107.03c-22.5,28.58-55.52,48.18-91.34,54.44c-41.18,7.2-80.63-4.93-117.22-23.33
				c-1-0.5-2.26,0.1-2.26,1.3c0,30.32,0.1,60.64,0,90.96c-0.04,13.06-6.9,24.85-19.84,28.95c-17.64,5.58-38.67-5.98-39.53-25.41
				c-0.32-7.34,0-14.76,0-22.1c0-38.24,0-76.47,0-114.71c0-27.85-0.05-55.69,0-83.54c0.12-70.35,52.38-134.43,121.43-148.72
				C1182.67,104.38,1192.76,103.47,1202.89,103.42c1.93-0.01,1.93-3.01,0-3c-76.75,0.44-145.41,61.07-153.73,137.84
				c-1.23,11.36-0.86,22.89-0.86,34.3c0,17.73,0,35.46,0,53.2c0,41.13,0,82.27,0,123.4c0,8.72-0.36,17.54,0,26.26
				c0.55,13.29,10.25,24.74,22.85,28.58c14.45,4.41,30.96-1.5,38.51-14.71c3.84-6.72,4.01-13.92,4.01-21.36c0-8.77,0-17.55,0-26.32
				c0-18.92,0-37.85,0-56.77c0-1.27,0-2.54,0-3.82c-0.75,0.43-1.5,0.86-2.26,1.3c32.94,16.57,68.63,28.7,105.95,25.41
				c37.41-3.3,73.21-20.48,98.71-48.16c25.85-28.07,40.37-65.21,40.77-103.33c0.4-38.6-14.26-75.9-40.02-104.56
				c-28.98-32.24-70.61-51-113.93-51.25C1200.96,100.41,1200.96,103.41,1202.89,103.42z"/>
			<path class="st1" d="M1110.67,254.38c0.31,38.26,22.64,73.03,58.81,86.83c36.64,13.97,79.58,3,104.14-27.72
				c23.8-29.76,27.72-71.79,8.44-104.89c-19.42-33.33-57.76-50.92-95.73-44.42C1142.89,171.61,1111.09,210.79,1110.67,254.38
				c-0.02,1.93,2.98,1.93,3,0c0.35-37.28,23.99-71.02,59.26-83.61c35.14-12.55,75.51-0.9,98.83,28.08
				c23.57,29.29,25.95,70.61,6.56,102.69c-19.54,32.34-57.59,48.54-94.55,40.74c-41.69-8.81-69.75-45.92-70.09-87.9
				C1113.66,252.45,1110.66,252.44,1110.67,254.38z"/>
		</g>
	</g>
</g>
<g>
	<g>
		<path class="st2" d="M48.39,544.71c12,0,22.2,4.2,30.6,12.6h-0.18c0.84,0.84,1.41,1.71,1.71,2.61c0.3,0.9,0.45,1.77,0.45,2.61
			c0,2.52-0.9,4.68-2.7,6.48c-0.84,0.84-1.83,1.44-2.97,1.8c-1.14,0.36-2.31,0.54-3.51,0.54c-2.64,0-4.74-0.78-6.3-2.34
			c-4.92-4.44-10.62-6.66-17.1-6.66c-3.48,0-6.81,0.72-9.99,2.16c-3.18,1.44-5.97,3.36-8.37,5.76c-2.4,2.4-4.29,5.16-5.67,8.28
			c-1.38,3.12-2.07,6.36-2.07,9.72c0,3.48,0.72,6.81,2.16,9.99c1.44,3.18,3.36,6,5.76,8.46c2.4,2.46,5.16,4.38,8.28,5.76
			c3.12,1.38,6.42,1.95,9.9,1.71c6.6,0,12.66-2.46,18.18-7.38c1.08-1.2,2.88-1.8,5.4-1.8c2.28,0,4.32,0.96,6.12,2.88
			c1.92,1.8,2.88,3.78,2.88,5.94c0,0.96-0.18,1.95-0.54,2.97c-0.36,1.02-0.9,1.83-1.62,2.43c-4.2,4.2-8.79,7.35-13.77,9.45
			c-4.98,2.1-10.53,3.15-16.65,3.15c-6,0-11.64-1.17-16.92-3.51c-5.28-2.34-9.9-5.49-13.86-9.45s-7.11-8.58-9.45-13.86
			c-2.34-5.28-3.51-10.86-3.51-16.74c0-5.76,1.17-11.25,3.51-16.47c2.34-5.22,5.52-9.84,9.54-13.86c4.02-4.02,8.67-7.23,13.95-9.63
			C36.92,545.91,42.5,544.71,48.39,544.71z"/>
		<path class="st2" d="M134.25,544.89c5.4,0.6,10.47,2.16,15.21,4.68c4.74,2.52,8.82,5.73,12.24,9.63c3.42,3.9,6.12,8.34,8.1,13.32
			c1.98,4.98,2.97,10.23,2.97,15.75v34.74c0,2.4-0.9,4.47-2.7,6.21c-1.8,1.74-3.84,2.61-6.12,2.61c-0.84,0-1.77-0.06-2.79-0.18
			c-1.02-0.12-2.01-0.45-2.97-0.99c-0.96-0.54-1.83-1.29-2.61-2.25c-0.78-0.96-1.23-2.28-1.35-3.96c-0.6,0.24-1.68,0.78-3.24,1.62
			c-1.56,0.84-2.7,1.44-3.42,1.8c-1.32,0.6-2.7,1.14-4.14,1.62c-1.44,0.48-2.94,0.96-4.5,1.44c-3,0.6-6.24,0.9-9.72,0.9
			c-9,0-17.04-2.43-24.12-7.29c-7.08-4.86-12.36-11.13-15.84-18.81c-1.2-2.64-2.13-5.43-2.79-8.37c-0.66-2.94-0.99-5.97-0.99-9.09
			c0-3.12,0.33-6.12,0.99-9c0.66-2.88,1.59-5.7,2.79-8.46c3.48-7.8,8.76-14.1,15.84-18.9c7.08-4.8,15.12-7.2,24.12-7.2
			c0.96,0,1.8,0,2.52,0S133.28,544.77,134.25,544.89z M129.03,614.19c3.48,0,6.81-0.66,9.99-1.98c3.18-1.32,5.94-3.15,8.28-5.49
			c2.34-2.34,4.2-5.07,5.58-8.19c1.38-3.12,2.07-6.54,2.07-10.26c0-3.36-0.69-6.63-2.07-9.81c-1.38-3.18-3.27-5.94-5.67-8.28
			c-2.4-2.34-5.16-4.23-8.28-5.67c-3.12-1.44-6.42-2.16-9.9-2.16c-3.48,0-6.75,0.69-9.81,2.07c-3.06,1.38-5.79,3.27-8.19,5.67
			c-2.4,2.4-4.29,5.16-5.67,8.28c-1.38,3.12-2.07,6.42-2.07,9.9c0,3.6,0.72,6.96,2.16,10.08c1.44,3.12,3.39,5.85,5.85,8.19
			c2.46,2.34,5.22,4.2,8.28,5.58C122.64,613.5,125.79,614.19,129.03,614.19z"/>
		<path class="st2" d="M187.52,516.81c2.16,0,4.17,0.87,6.03,2.61c1.86,1.74,2.79,3.81,2.79,6.21v75.78c0,3.84,1.2,7.02,3.6,9.54
			c2.4,2.52,5.52,3.78,9.36,3.78c2.4,0,4.47,0.84,6.21,2.52c1.74,1.68,2.67,3.72,2.79,6.12c-0.12,2.04-0.96,3.84-2.52,5.4
			c-1.56,1.56-3.36,2.64-5.4,3.24h-2.52c-3.96,0-7.74-0.84-11.34-2.52c-3.6-1.68-6.75-3.93-9.45-6.75c-2.7-2.82-4.83-6.09-6.39-9.81
			c-1.56-3.72-2.34-7.56-2.34-11.52v-75.78c0-2.04,0.93-4.02,2.79-5.94C182.99,517.77,185.12,516.81,187.52,516.81z"/>
		<path class="st2" d="M255.93,544.35c5.76,0,11.31,1.23,16.65,3.69c5.34,2.46,10.02,5.7,14.04,9.72c4.02,4.02,7.26,8.7,9.72,14.04
			c2.46,5.34,3.69,10.89,3.69,16.65c0,2.4-0.9,4.53-2.7,6.39c-1.8,1.86-4.08,2.73-6.84,2.61h-60.48
			c3.48,6.24,7.53,10.68,12.15,13.32c4.62,2.64,9.21,3.96,13.77,3.96c2.52,0,4.68-0.3,6.48-0.9c1.8-0.6,3.36-1.14,4.68-1.62
			c1.56-1.08,3.3-1.62,5.22-1.62c2.64,0.24,4.77,1.29,6.39,3.15c1.62,1.86,2.43,3.87,2.43,6.03c0,0.96-0.15,1.98-0.45,3.06
			c-0.3,1.08-0.93,2.04-1.89,2.88l0.18-0.36c-3.12,2.52-6.66,4.32-10.62,5.4c-3.96,1.08-8.16,1.68-12.6,1.8
			c-5.88,0.24-11.49-0.81-16.83-3.15c-5.34-2.34-10.02-5.55-14.04-9.63c-4.02-4.08-7.2-8.82-9.54-14.22
			c-2.34-5.4-3.51-11.1-3.51-17.1c0-5.76,1.17-11.31,3.51-16.65c2.34-5.34,5.55-10.02,9.63-14.04c4.08-4.02,8.76-7.26,14.04-9.72
			C244.28,545.58,249.92,544.35,255.93,544.35z M281.84,578.73c-2.88-4.8-6.57-8.73-11.07-11.79c-4.5-3.06-9.45-4.59-14.85-4.59
			c-5.64,0-10.71,1.56-15.21,4.68c-4.5,3.12-8.01,6.96-10.53,11.52c-0.24,0.24-0.36,0.48-0.36,0.72h52.2
			c-0.12,0-0.18-0.06-0.18-0.18V578.73z"/>
		<path class="st2" d="M348.08,544.17c5.76,0,11.28,1.05,16.56,3.15c5.28,2.1,9.9,5.01,13.86,8.73c3.96,3.72,7.14,8.16,9.54,13.32
			c2.4,5.16,3.6,10.74,3.6,16.74v36.36c0,2.4-0.87,4.44-2.61,6.12c-1.74,1.68-3.81,2.58-6.21,2.7c-2.4,0-4.47-0.78-6.21-2.34
			c-1.74-1.56-2.61-3.54-2.61-5.94v-35.28c0-3.6-0.66-6.96-1.98-10.08c-1.32-3.12-3.15-5.85-5.49-8.19s-5.1-4.2-8.28-5.58
			c-3.18-1.38-6.63-2.07-10.35-2.07c-3.48,0-6.75,0.63-9.81,1.89c-3.06,1.26-5.76,3.03-8.1,5.31c-2.34,2.28-4.2,4.92-5.58,7.92
			c-1.38,3-2.07,6.24-2.07,9.72v35.82c0,2.4-0.9,4.47-2.7,6.21c-1.8,1.74-3.9,2.61-6.3,2.61c-2.4,0-4.5-0.78-6.3-2.34
			c-1.8-1.56-2.7-3.54-2.7-5.94v-35.28c0.12-6,1.32-11.64,3.6-16.92c2.28-5.28,5.34-9.9,9.18-13.86c3.84-3.96,8.4-7.08,13.68-9.36
			C336.08,545.31,341.84,544.17,348.08,544.17z"/>
		<path class="st2" d="M474.08,516.99c2.04-0.12,3.96,0.69,5.76,2.43c1.8,1.74,2.7,3.63,2.7,5.67v63.18c0,5.88-1.2,11.46-3.6,16.74
			c-2.4,5.28-5.64,9.9-9.72,13.86c-4.08,3.96-8.73,7.11-13.95,9.45s-10.71,3.51-16.47,3.51c-5.88,0-11.46-1.14-16.74-3.42
			c-5.28-2.28-9.9-5.4-13.86-9.36c-3.96-3.96-7.11-8.58-9.45-13.86c-2.34-5.28-3.51-10.92-3.51-16.92c0-6.48,1.05-12.18,3.15-17.1
			c2.1-4.92,5.25-9.54,9.45-13.86v0.18c4.44-4.2,9.33-7.38,14.67-9.54c5.34-2.16,10.83-3.24,16.47-3.24c3.36,0,7.35,0.54,11.97,1.62
			c4.62,1.08,9.21,3.18,13.77,6.3v-26.64c0-1.2,0.24-2.34,0.72-3.42c0.48-1.08,1.11-2.07,1.89-2.97c0.78-0.9,1.71-1.59,2.79-2.07
			c1.08-0.48,2.16-0.66,3.24-0.54H474.08z M464.72,588.27c0-3.24-0.69-6.42-2.07-9.54c-1.38-3.12-3.27-5.91-5.67-8.37
			c-2.4-2.46-5.16-4.41-8.28-5.85c-3.12-1.44-6.42-2.16-9.9-2.16s-6.81,0.69-9.99,2.07c-3.18,1.38-5.94,3.24-8.28,5.58
			s-4.2,5.1-5.58,8.28c-1.38,3.18-2.07,6.51-2.07,9.99c0,3.6,0.69,6.96,2.07,10.08c1.38,3.12,3.24,5.85,5.58,8.19s5.1,4.2,8.28,5.58
			c3.18,1.38,6.51,2.07,9.99,2.07s6.78-0.69,9.9-2.07c3.12-1.38,5.88-3.24,8.28-5.58s4.29-5.07,5.67-8.19
			C464.03,595.23,464.72,591.87,464.72,588.27z"/>
		<path class="st2" d="M536.36,544.89c5.4,0.6,10.47,2.16,15.21,4.68c4.74,2.52,8.82,5.73,12.24,9.63c3.42,3.9,6.12,8.34,8.1,13.32
			c1.98,4.98,2.97,10.23,2.97,15.75v34.74c0,2.4-0.9,4.47-2.7,6.21c-1.8,1.74-3.84,2.61-6.12,2.61c-0.84,0-1.77-0.06-2.79-0.18
			c-1.02-0.12-2.01-0.45-2.97-0.99c-0.96-0.54-1.83-1.29-2.61-2.25c-0.78-0.96-1.23-2.28-1.35-3.96c-0.6,0.24-1.68,0.78-3.24,1.62
			c-1.56,0.84-2.7,1.44-3.42,1.8c-1.32,0.6-2.7,1.14-4.14,1.62c-1.44,0.48-2.94,0.96-4.5,1.44c-3,0.6-6.24,0.9-9.72,0.9
			c-9,0-17.04-2.43-24.12-7.29c-7.08-4.86-12.36-11.13-15.84-18.81c-1.2-2.64-2.13-5.43-2.79-8.37c-0.66-2.94-0.99-5.97-0.99-9.09
			c0-3.12,0.33-6.12,0.99-9c0.66-2.88,1.59-5.7,2.79-8.46c3.48-7.8,8.76-14.1,15.84-18.9c7.08-4.8,15.12-7.2,24.12-7.2
			c0.96,0,1.8,0,2.52,0C534.56,544.71,535.4,544.77,536.36,544.89z M531.14,614.19c3.48,0,6.81-0.66,9.99-1.98
			c3.18-1.32,5.94-3.15,8.28-5.49c2.34-2.34,4.2-5.07,5.58-8.19c1.38-3.12,2.07-6.54,2.07-10.26c0-3.36-0.69-6.63-2.07-9.81
			c-1.38-3.18-3.27-5.94-5.67-8.28c-2.4-2.34-5.16-4.23-8.28-5.67c-3.12-1.44-6.42-2.16-9.9-2.16c-3.48,0-6.75,0.69-9.81,2.07
			c-3.06,1.38-5.79,3.27-8.19,5.67c-2.4,2.4-4.29,5.16-5.67,8.28c-1.38,3.12-2.07,6.42-2.07,9.9c0,3.6,0.72,6.96,2.16,10.08
			c1.44,3.12,3.39,5.85,5.85,8.19c2.46,2.34,5.22,4.2,8.28,5.58C524.75,613.5,527.9,614.19,531.14,614.19z"/>
		<path class="st2" d="M588.74,632.01c-2.28,0-4.23-0.84-5.85-2.52c-1.62-1.68-2.61-3.72-2.97-6.12v-36.18
			c0.12-5.88,1.35-11.34,3.69-16.38c2.34-5.04,5.49-9.45,9.45-13.23c3.96-3.78,8.55-6.78,13.77-9c5.22-2.22,10.77-3.45,16.65-3.69
			c2.28,0.12,4.26,1.08,5.94,2.88c1.68,1.8,2.7,3.78,3.06,5.94c-0.24,2.28-1.2,4.29-2.88,6.03c-1.68,1.74-3.72,2.67-6.12,2.79
			c-3.48,0-6.78,0.66-9.9,1.98c-3.12,1.32-5.85,3.15-8.19,5.49c-2.34,2.34-4.2,5.07-5.58,8.19c-1.38,3.12-2.07,6.54-2.07,10.26
			v35.82c-0.36,2.04-1.35,3.84-2.97,5.4C593.15,631.23,591.14,632.01,588.74,632.01z"/>
	</g>
	<g>
		<linearGradient id="SVGID_6_" gradientUnits="userSpaceOnUse" x1="4.6462" y1="574.6954" x2="632.4817" y2="574.6954">
			<stop  offset="0" style="stop-color:#F59DB2"/>
			<stop  offset="0.3333" style="stop-color:#FCEC98"/>
			<stop  offset="0.6666" style="stop-color:#FBB57F"/>
			<stop  offset="1" style="stop-color:#AADFF1"/>
		</linearGradient>
		<path class="st11" d="M48.39,544.71c12,0,22.2,4.2,30.6,12.6h-0.18c0.84,0.84,1.41,1.71,1.71,2.61c0.3,0.9,0.45,1.77,0.45,2.61
			c0,2.52-0.9,4.68-2.7,6.48c-0.84,0.84-1.83,1.44-2.97,1.8c-1.14,0.36-2.31,0.54-3.51,0.54c-2.64,0-4.74-0.78-6.3-2.34
			c-4.92-4.44-10.62-6.66-17.1-6.66c-3.48,0-6.81,0.72-9.99,2.16c-3.18,1.44-5.97,3.36-8.37,5.76c-2.4,2.4-4.29,5.16-5.67,8.28
			c-1.38,3.12-2.07,6.36-2.07,9.72c0,3.48,0.72,6.81,2.16,9.99c1.44,3.18,3.36,6,5.76,8.46c2.4,2.46,5.16,4.38,8.28,5.76
			c3.12,1.38,6.42,1.95,9.9,1.71c6.6,0,12.66-2.46,18.18-7.38c1.08-1.2,2.88-1.8,5.4-1.8c2.28,0,4.32,0.96,6.12,2.88
			c1.92,1.8,2.88,3.78,2.88,5.94c0,0.96-0.18,1.95-0.54,2.97c-0.36,1.02-0.9,1.83-1.62,2.43c-4.2,4.2-8.79,7.35-13.77,9.45
			c-4.98,2.1-10.53,3.15-16.65,3.15c-6,0-11.64-1.17-16.92-3.51c-5.28-2.34-9.9-5.49-13.86-9.45s-7.11-8.58-9.45-13.86
			c-2.34-5.28-3.51-10.86-3.51-16.74c0-5.76,1.17-11.25,3.51-16.47c2.34-5.22,5.52-9.84,9.54-13.86c4.02-4.02,8.67-7.23,13.95-9.63
			C36.92,545.91,42.5,544.71,48.39,544.71z"/>
		<linearGradient id="SVGID_7_" gradientUnits="userSpaceOnUse" x1="4.6462" y1="574.6954" x2="632.4817" y2="574.6954">
			<stop  offset="0" style="stop-color:#F59DB2"/>
			<stop  offset="0.3333" style="stop-color:#FCEC98"/>
			<stop  offset="0.6666" style="stop-color:#FBB57F"/>
			<stop  offset="1" style="stop-color:#AADFF1"/>
		</linearGradient>
		<path class="st12" d="M134.25,544.89c5.4,0.6,10.47,2.16,15.21,4.68c4.74,2.52,8.82,5.73,12.24,9.63c3.42,3.9,6.12,8.34,8.1,13.32
			c1.98,4.98,2.97,10.23,2.97,15.75v34.74c0,2.4-0.9,4.47-2.7,6.21c-1.8,1.74-3.84,2.61-6.12,2.61c-0.84,0-1.77-0.06-2.79-0.18
			c-1.02-0.12-2.01-0.45-2.97-0.99c-0.96-0.54-1.83-1.29-2.61-2.25c-0.78-0.96-1.23-2.28-1.35-3.96c-0.6,0.24-1.68,0.78-3.24,1.62
			c-1.56,0.84-2.7,1.44-3.42,1.8c-1.32,0.6-2.7,1.14-4.14,1.62c-1.44,0.48-2.94,0.96-4.5,1.44c-3,0.6-6.24,0.9-9.72,0.9
			c-9,0-17.04-2.43-24.12-7.29c-7.08-4.86-12.36-11.13-15.84-18.81c-1.2-2.64-2.13-5.43-2.79-8.37c-0.66-2.94-0.99-5.97-0.99-9.09
			c0-3.12,0.33-6.12,0.99-9c0.66-2.88,1.59-5.7,2.79-8.46c3.48-7.8,8.76-14.1,15.84-18.9c7.08-4.8,15.12-7.2,24.12-7.2
			c0.96,0,1.8,0,2.52,0S133.28,544.77,134.25,544.89z M129.03,614.19c3.48,0,6.81-0.66,9.99-1.98c3.18-1.32,5.94-3.15,8.28-5.49
			c2.34-2.34,4.2-5.07,5.58-8.19c1.38-3.12,2.07-6.54,2.07-10.26c0-3.36-0.69-6.63-2.07-9.81c-1.38-3.18-3.27-5.94-5.67-8.28
			c-2.4-2.34-5.16-4.23-8.28-5.67c-3.12-1.44-6.42-2.16-9.9-2.16c-3.48,0-6.75,0.69-9.81,2.07c-3.06,1.38-5.79,3.27-8.19,5.67
			c-2.4,2.4-4.29,5.16-5.67,8.28c-1.38,3.12-2.07,6.42-2.07,9.9c0,3.6,0.72,6.96,2.16,10.08c1.44,3.12,3.39,5.85,5.85,8.19
			c2.46,2.34,5.22,4.2,8.28,5.58C122.64,613.5,125.79,614.19,129.03,614.19z"/>
		<linearGradient id="SVGID_8_" gradientUnits="userSpaceOnUse" x1="4.6462" y1="574.6954" x2="632.4817" y2="574.6954">
			<stop  offset="0" style="stop-color:#F59DB2"/>
			<stop  offset="0.3333" style="stop-color:#FCEC98"/>
			<stop  offset="0.6666" style="stop-color:#FBB57F"/>
			<stop  offset="1" style="stop-color:#AADFF1"/>
		</linearGradient>
		<path class="st13" d="M187.52,516.81c2.16,0,4.17,0.87,6.03,2.61c1.86,1.74,2.79,3.81,2.79,6.21v75.78c0,3.84,1.2,7.02,3.6,9.54
			c2.4,2.52,5.52,3.78,9.36,3.78c2.4,0,4.47,0.84,6.21,2.52c1.74,1.68,2.67,3.72,2.79,6.12c-0.12,2.04-0.96,3.84-2.52,5.4
			c-1.56,1.56-3.36,2.64-5.4,3.24h-2.52c-3.96,0-7.74-0.84-11.34-2.52c-3.6-1.68-6.75-3.93-9.45-6.75c-2.7-2.82-4.83-6.09-6.39-9.81
			c-1.56-3.72-2.34-7.56-2.34-11.52v-75.78c0-2.04,0.93-4.02,2.79-5.94C182.99,517.77,185.12,516.81,187.52,516.81z"/>
		<linearGradient id="SVGID_9_" gradientUnits="userSpaceOnUse" x1="4.6462" y1="574.6954" x2="632.4817" y2="574.6954">
			<stop  offset="0" style="stop-color:#F59DB2"/>
			<stop  offset="0.3333" style="stop-color:#FCEC98"/>
			<stop  offset="0.6666" style="stop-color:#FBB57F"/>
			<stop  offset="1" style="stop-color:#AADFF1"/>
		</linearGradient>
		<path class="st14" d="M255.93,544.35c5.76,0,11.31,1.23,16.65,3.69c5.34,2.46,10.02,5.7,14.04,9.72c4.02,4.02,7.26,8.7,9.72,14.04
			c2.46,5.34,3.69,10.89,3.69,16.65c0,2.4-0.9,4.53-2.7,6.39c-1.8,1.86-4.08,2.73-6.84,2.61h-60.48
			c3.48,6.24,7.53,10.68,12.15,13.32c4.62,2.64,9.21,3.96,13.77,3.96c2.52,0,4.68-0.3,6.48-0.9c1.8-0.6,3.36-1.14,4.68-1.62
			c1.56-1.08,3.3-1.62,5.22-1.62c2.64,0.24,4.77,1.29,6.39,3.15c1.62,1.86,2.43,3.87,2.43,6.03c0,0.96-0.15,1.98-0.45,3.06
			c-0.3,1.08-0.93,2.04-1.89,2.88l0.18-0.36c-3.12,2.52-6.66,4.32-10.62,5.4c-3.96,1.08-8.16,1.68-12.6,1.8
			c-5.88,0.24-11.49-0.81-16.83-3.15c-5.34-2.34-10.02-5.55-14.04-9.63c-4.02-4.08-7.2-8.82-9.54-14.22
			c-2.34-5.4-3.51-11.1-3.51-17.1c0-5.76,1.17-11.31,3.51-16.65c2.34-5.34,5.55-10.02,9.63-14.04c4.08-4.02,8.76-7.26,14.04-9.72
			C244.28,545.58,249.92,544.35,255.93,544.35z M281.84,578.73c-2.88-4.8-6.57-8.73-11.07-11.79c-4.5-3.06-9.45-4.59-14.85-4.59
			c-5.64,0-10.71,1.56-15.21,4.68c-4.5,3.12-8.01,6.96-10.53,11.52c-0.24,0.24-0.36,0.48-0.36,0.72h52.2
			c-0.12,0-0.18-0.06-0.18-0.18V578.73z"/>
		<linearGradient id="SVGID_10_" gradientUnits="userSpaceOnUse" x1="4.6462" y1="574.6954" x2="632.4817" y2="574.6954">
			<stop  offset="0" style="stop-color:#F59DB2"/>
			<stop  offset="0.3333" style="stop-color:#FCEC98"/>
			<stop  offset="0.6666" style="stop-color:#FBB57F"/>
			<stop  offset="1" style="stop-color:#AADFF1"/>
		</linearGradient>
		<path class="st15" d="M348.08,544.17c5.76,0,11.28,1.05,16.56,3.15c5.28,2.1,9.9,5.01,13.86,8.73c3.96,3.72,7.14,8.16,9.54,13.32
			c2.4,5.16,3.6,10.74,3.6,16.74v36.36c0,2.4-0.87,4.44-2.61,6.12c-1.74,1.68-3.81,2.58-6.21,2.7c-2.4,0-4.47-0.78-6.21-2.34
			c-1.74-1.56-2.61-3.54-2.61-5.94v-35.28c0-3.6-0.66-6.96-1.98-10.08c-1.32-3.12-3.15-5.85-5.49-8.19s-5.1-4.2-8.28-5.58
			c-3.18-1.38-6.63-2.07-10.35-2.07c-3.48,0-6.75,0.63-9.81,1.89c-3.06,1.26-5.76,3.03-8.1,5.31c-2.34,2.28-4.2,4.92-5.58,7.92
			c-1.38,3-2.07,6.24-2.07,9.72v35.82c0,2.4-0.9,4.47-2.7,6.21c-1.8,1.74-3.9,2.61-6.3,2.61c-2.4,0-4.5-0.78-6.3-2.34
			c-1.8-1.56-2.7-3.54-2.7-5.94v-35.28c0.12-6,1.32-11.64,3.6-16.92c2.28-5.28,5.34-9.9,9.18-13.86c3.84-3.96,8.4-7.08,13.68-9.36
			C336.08,545.31,341.84,544.17,348.08,544.17z"/>
		<linearGradient id="SVGID_11_" gradientUnits="userSpaceOnUse" x1="4.6462" y1="574.6954" x2="632.4817" y2="574.6954">
			<stop  offset="0" style="stop-color:#F59DB2"/>
			<stop  offset="0.3333" style="stop-color:#FCEC98"/>
			<stop  offset="0.6666" style="stop-color:#FBB57F"/>
			<stop  offset="1" style="stop-color:#AADFF1"/>
		</linearGradient>
		<path class="st16" d="M474.08,516.99c2.04-0.12,3.96,0.69,5.76,2.43c1.8,1.74,2.7,3.63,2.7,5.67v63.18c0,5.88-1.2,11.46-3.6,16.74
			c-2.4,5.28-5.64,9.9-9.72,13.86c-4.08,3.96-8.73,7.11-13.95,9.45s-10.71,3.51-16.47,3.51c-5.88,0-11.46-1.14-16.74-3.42
			c-5.28-2.28-9.9-5.4-13.86-9.36c-3.96-3.96-7.11-8.58-9.45-13.86c-2.34-5.28-3.51-10.92-3.51-16.92c0-6.48,1.05-12.18,3.15-17.1
			c2.1-4.92,5.25-9.54,9.45-13.86v0.18c4.44-4.2,9.33-7.38,14.67-9.54c5.34-2.16,10.83-3.24,16.47-3.24c3.36,0,7.35,0.54,11.97,1.62
			c4.62,1.08,9.21,3.18,13.77,6.3v-26.64c0-1.2,0.24-2.34,0.72-3.42c0.48-1.08,1.11-2.07,1.89-2.97c0.78-0.9,1.71-1.59,2.79-2.07
			c1.08-0.48,2.16-0.66,3.24-0.54H474.08z M464.72,588.27c0-3.24-0.69-6.42-2.07-9.54c-1.38-3.12-3.27-5.91-5.67-8.37
			c-2.4-2.46-5.16-4.41-8.28-5.85c-3.12-1.44-6.42-2.16-9.9-2.16s-6.81,0.69-9.99,2.07c-3.18,1.38-5.94,3.24-8.28,5.58
			s-4.2,5.1-5.58,8.28c-1.38,3.18-2.07,6.51-2.07,9.99c0,3.6,0.69,6.96,2.07,10.08c1.38,3.12,3.24,5.85,5.58,8.19s5.1,4.2,8.28,5.58
			c3.18,1.38,6.51,2.07,9.99,2.07s6.78-0.69,9.9-2.07c3.12-1.38,5.88-3.24,8.28-5.58s4.29-5.07,5.67-8.19
			C464.03,595.23,464.72,591.87,464.72,588.27z"/>
		<linearGradient id="SVGID_12_" gradientUnits="userSpaceOnUse" x1="4.6462" y1="574.6954" x2="632.4817" y2="574.6954">
			<stop  offset="0" style="stop-color:#F59DB2"/>
			<stop  offset="0.3333" style="stop-color:#FCEC98"/>
			<stop  offset="0.6666" style="stop-color:#FBB57F"/>
			<stop  offset="1" style="stop-color:#AADFF1"/>
		</linearGradient>
		<path class="st17" d="M536.36,544.89c5.4,0.6,10.47,2.16,15.21,4.68c4.74,2.52,8.82,5.73,12.24,9.63c3.42,3.9,6.12,8.34,8.1,13.32
			c1.98,4.98,2.97,10.23,2.97,15.75v34.74c0,2.4-0.9,4.47-2.7,6.21c-1.8,1.74-3.84,2.61-6.12,2.61c-0.84,0-1.77-0.06-2.79-0.18
			c-1.02-0.12-2.01-0.45-2.97-0.99c-0.96-0.54-1.83-1.29-2.61-2.25c-0.78-0.96-1.23-2.28-1.35-3.96c-0.6,0.24-1.68,0.78-3.24,1.62
			c-1.56,0.84-2.7,1.44-3.42,1.8c-1.32,0.6-2.7,1.14-4.14,1.62c-1.44,0.48-2.94,0.96-4.5,1.44c-3,0.6-6.24,0.9-9.72,0.9
			c-9,0-17.04-2.43-24.12-7.29c-7.08-4.86-12.36-11.13-15.84-18.81c-1.2-2.64-2.13-5.43-2.79-8.37c-0.66-2.94-0.99-5.97-0.99-9.09
			c0-3.12,0.33-6.12,0.99-9c0.66-2.88,1.59-5.7,2.79-8.46c3.48-7.8,8.76-14.1,15.84-18.9c7.08-4.8,15.12-7.2,24.12-7.2
			c0.96,0,1.8,0,2.52,0C534.56,544.71,535.4,544.77,536.36,544.89z M531.14,614.19c3.48,0,6.81-0.66,9.99-1.98
			c3.18-1.32,5.94-3.15,8.28-5.49c2.34-2.34,4.2-5.07,5.58-8.19c1.38-3.12,2.07-6.54,2.07-10.26c0-3.36-0.69-6.63-2.07-9.81
			c-1.38-3.18-3.27-5.94-5.67-8.28c-2.4-2.34-5.16-4.23-8.28-5.67c-3.12-1.44-6.42-2.16-9.9-2.16c-3.48,0-6.75,0.69-9.81,2.07
			c-3.06,1.38-5.79,3.27-8.19,5.67c-2.4,2.4-4.29,5.16-5.67,8.28c-1.38,3.12-2.07,6.42-2.07,9.9c0,3.6,0.72,6.96,2.16,10.08
			c1.44,3.12,3.39,5.85,5.85,8.19c2.46,2.34,5.22,4.2,8.28,5.58C524.75,613.5,527.9,614.19,531.14,614.19z"/>
		<linearGradient id="SVGID_13_" gradientUnits="userSpaceOnUse" x1="4.6462" y1="574.6954" x2="632.4817" y2="574.6954">
			<stop  offset="0" style="stop-color:#F59DB2"/>
			<stop  offset="0.3333" style="stop-color:#FCEC98"/>
			<stop  offset="0.6666" style="stop-color:#FBB57F"/>
			<stop  offset="1" style="stop-color:#AADFF1"/>
		</linearGradient>
		<path class="st18" d="M588.74,632.01c-2.28,0-4.23-0.84-5.85-2.52c-1.62-1.68-2.61-3.72-2.97-6.12v-36.18
			c0.12-5.88,1.35-11.34,3.69-16.38c2.34-5.04,5.49-9.45,9.45-13.23c3.96-3.78,8.55-6.78,13.77-9c5.22-2.22,10.77-3.45,16.65-3.69
			c2.28,0.12,4.26,1.08,5.94,2.88c1.68,1.8,2.7,3.78,3.06,5.94c-0.24,2.28-1.2,4.29-2.88,6.03c-1.68,1.74-3.72,2.67-6.12,2.79
			c-3.48,0-6.78,0.66-9.9,1.98c-3.12,1.32-5.85,3.15-8.19,5.49c-2.34,2.34-4.2,5.07-5.58,8.19c-1.38,3.12-2.07,6.54-2.07,10.26
			v35.82c-0.36,2.04-1.35,3.84-2.97,5.4C593.15,631.23,591.14,632.01,588.74,632.01z"/>
	</g>
	<g>
		<g>
			<path class="st1" d="M48.39,546.21c11.4,0.18,21.34,4.23,29.54,12.16c0.35-0.85,0.71-1.71,1.06-2.56c-0.06,0-0.12,0-0.18,0
				c-1.39,0-1.85,1.6-1.06,2.56c4.2,5.1-0.12,11.47-5.96,11.48c-2.78,0-4.7-1.55-6.79-3.2c-3.81-2.99-8.23-4.94-13.04-5.56
				c-8.5-1.09-16.96,2.09-22.99,8.12c-13.66,13.66-8.75,36.77,8.76,44.57c7.67,3.41,17.18,2.33,24.34-1.83
				c4.67-2.71,8.17-7.94,13.97-3.8c8.59,6.13-1.85,13.9-7.38,17.07c-22.03,12.61-50.63,0.85-59.72-22.19
				C-1.68,576.1,20.28,546.79,48.39,546.21c1.93-0.04,1.93-3.04,0-3c-23.59,0.48-44.72,20.24-45.22,44.2
				c-0.5,23.9,19.6,44.96,43.43,45.88c11.35,0.44,22.1-3.16,30.7-10.61c3.25-2.81,5.9-5.96,5-10.53c-0.77-3.93-4.69-7.73-8.59-8.48
				c-4.61-0.89-7.04,1.4-10.48,3.93c-5.27,3.88-11.73,5.69-18.26,5.05c-17.65-1.74-26.56-23.73-16.86-37.76
				c5.43-7.85,15.1-12.38,24.6-10.69c3.43,0.61,6.68,2.03,9.5,4.06c2.17,1.56,3.68,3.37,6.27,4.15c9.93,2.97,18.07-8.06,11.39-16.17
				c-0.35,0.85-0.71,1.71-1.06,2.56c0.06,0,0.12,0,0.18,0c1.28,0,2-1.65,1.06-2.56c-8.76-8.48-19.48-12.84-31.66-13.04
				C46.45,543.18,46.45,546.18,48.39,546.21z"/>
		</g>
		<g>
			<path class="st1" d="M134.25,546.39c14.93,1.97,27.52,11.44,33.54,25.25c3.31,7.6,3.48,15.34,3.48,23.41c0,7.06,0,14.13,0,21.19
				c0,2.12,0.18,4.34,0,6.45c-0.76,8.79-14.21,10.81-15.59,1.36c-0.15-1.05-1.43-1.24-2.2-0.9c-5.24,2.35-9.99,5.23-15.7,6.47
				c-6.72,1.45-14.4,0.92-20.94-1.06c-13.24-4-23.85-15.05-28-28.14C79.63,571.43,105.04,543.49,134.25,546.39
				c1.92,0.19,1.91-2.81,0-3c-31.26-3.1-57.88,27.12-48.32,57.83c4.24,13.62,15.08,25.08,28.6,29.75
				c6.92,2.39,14.49,2.87,21.71,1.91c6.93-0.92,12.51-4.34,18.74-7.13c-0.73-0.3-1.47-0.6-2.2-0.9
				c1.84,12.53,20.75,10.31,21.49-1.88c0.47-7.8,0-15.78,0-23.6c0-10,0.35-19.66-3.79-29.09c-6.55-14.92-20.16-24.77-36.23-26.9
				C132.34,543.14,132.36,546.14,134.25,546.39z"/>
			<path class="st1" d="M129.03,615.69c14.93-0.47,27.5-12.07,27.42-27.42c-0.08-14.55-12.81-27.4-27.42-27.42
				c-14.59-0.02-27.23,12.9-27.24,27.42C101.78,602.98,114.59,615.17,129.03,615.69c1.93,0.07,1.93-2.93,0-3
				c-12.72-0.45-24.35-11.39-24.24-24.42c0.11-12.88,11.21-24.44,24.24-24.42c12.75,0.02,23.76,11,24.39,23.58
				c0.7,13.98-10.88,24.83-24.39,25.26C127.1,612.75,127.09,615.75,129.03,615.69z"/>
		</g>
		<g>
			<path class="st1" d="M187.52,518.31c8.76,0.72,7.32,9.92,7.32,15.98c0,8.09,0,16.17,0,24.26c0,14.11-0.24,28.24,0,42.35
				c0.06,3.56,0.78,6.96,2.97,9.84c1.37,1.81,3.16,3.25,5.22,4.2c4.01,1.85,9.28,0.39,12.16,4.31c3.93,5.35-1.36,11.01-6.93,11.26
				c-4.59,0.21-9.27-1.25-13.22-3.48c-8.18-4.62-13.92-13.11-14.98-22.46c-0.5-4.46-0.21-9.07-0.21-13.54c0-8.34,0-16.68,0-25.02
				c0-9.64,0-19.27,0-28.91C179.84,530.46,177.79,519.11,187.52,518.31c1.91-0.16,1.93-3.16,0-3c-5.6,0.46-10.24,4.59-10.68,10.33
				c-0.11,1.5,0,3.05,0,4.54c0,8.63,0,17.27,0,25.9c0,15.59-0.87,31.45,0.05,47.01c0.96,16.28,14.59,30.03,30.97,30.41
				c5.03,0.12,10.39-3.09,11.66-8.25c1.4-5.68-3.29-10.87-8.62-11.9c-2.42-0.47-4.57-0.19-6.86-1.31c-2.93-1.44-4.95-4.03-5.78-7.18
				c-0.37-1.41-0.39-2.84-0.42-4.28c-0.06-2.5,0-5.01,0-7.51c0-9.52,0-19.04,0-28.56c0-10.71,0-21.41,0-32.12
				c0-7.66-0.3-16.27-10.32-17.09C185.6,515.15,185.61,518.15,187.52,518.31z"/>
		</g>
		<g>
			<path class="st1" d="M255.93,545.85c15.6,0.33,29.76,9.67,37.31,23.17c3.25,5.82,8.88,19.02,3.03,24.76
				c-2.41,2.36-5.25,2.17-8.22,2.17c-14.51,0-29.02,0-43.53,0c-4.84,0-9.67,0-14.51,0c-1.14,0-1.86,1.27-1.3,2.26
				c5.06,8.74,12.26,15.69,22.53,17.57c4.91,0.9,9.4,0.27,14.06-1.35c3.15-1.09,5.82-3.01,9.29-1.69c4.68,1.78,6.85,8.07,3.14,11.91
				c0.79,0.61,1.57,1.21,2.36,1.82c0.06-0.12,0.12-0.24,0.18-0.36c0.59-1.19-0.75-3.05-2.05-2.05c-10.12,7.75-25.52,9.12-37.28,4.56
				c-11.92-4.62-21.26-14.71-25.41-26.74C206.24,574.95,228.1,546.42,255.93,545.85c1.93-0.04,1.93-3.04,0-3
				c-29.78,0.62-53.07,31-43.3,59.82c4.24,12.51,13.72,22.98,25.89,28.17c12.81,5.46,29.98,4.4,41.2-4.2
				c-0.68-0.68-1.37-1.37-2.05-2.05c-0.06,0.12-0.12,0.24-0.18,0.36c-0.73,1.47,1.12,3.1,2.36,1.82c6.56-6.79,0.2-18.86-9.15-17.55
				c-3.06,0.43-5.73,2.36-8.69,3.17c-4.14,1.12-8.41,1.12-12.55-0.09c-8.39-2.46-13.9-8.24-18.16-15.6c-0.43,0.75-0.86,1.5-1.3,2.26
				c14.88,0,29.77,0,44.65,0c5.27,0,10.55,0.13,15.82,0c16.54-0.41,10.62-21.68,5.74-30.75c-7.97-14.79-23.38-24.98-40.29-25.35
				C253.99,542.81,253.99,545.81,255.93,545.85z"/>
			<path class="st1" d="M283.14,577.97c-6.18-9.83-15.98-17.44-28.05-17.1c-11.23,0.32-21.59,7.67-26.56,17.64
				c-0.5,1,0.1,2.26,1.3,2.26c17.4,0,34.8,0,52.2,0c1.3,0,1.98-1.64,1.06-2.56c0.19,0.77,0.28,0.95,0.26,0.52c0-1.93-3-1.93-3,0
				c0,0.67,0.13,1.11,0.62,1.6c0.35-0.85,0.71-1.71,1.06-2.56c-17.4,0-34.8,0-52.2,0c0.43,0.75,0.86,1.5,1.3,2.26
				c4.5-9.02,13.76-15.84,23.97-16.15c10.98-0.34,19.85,6.69,25.46,15.61C281.57,581.12,284.17,579.61,283.14,577.97z"/>
		</g>
		<g>
			<path class="st1" d="M348.08,545.67c22.52,0.41,41.72,17.42,42.06,40.48c0.13,8.76,0,17.54,0,26.3c0,3.28,0.3,6.72,0,9.98
				c-0.61,6.72-10.19,10.67-13.9,3.69c-0.88-1.66-0.73-3.51-0.73-5.28c0-9.94,0-19.88,0-29.82c0-13.46-6.18-25.96-20.12-29.74
				c-16.93-4.59-34.07,7.79-34.54,25.37c-0.23,8.53,0,17.1,0,25.64c0,3.32,0.3,6.79,0,10.09c-0.62,6.92-10.44,10.65-14.23,3.74
				c-0.92-1.67-0.77-3.49-0.77-5.28c0-10.62-0.08-21.24,0-31.86C306.02,565.14,324.12,546.11,348.08,545.67c1.93-0.04,1.93-3.04,0-3
				c-21.3,0.39-39.74,14.8-44.2,35.93c-2.3,10.92-1.04,22.99-1.04,34.06c0,3.64-0.31,7.42,0.05,11.05
				c0.7,6.99,8.52,11.08,14.84,8.09c4.76-2.25,6.11-6.63,6.11-11.45c0-5.59,0-11.19,0-16.78c0-5.23-0.04-10.46,0-15.69
				c0.07-10.45,6.03-19.87,16.2-23.31c13.43-4.54,28.64,3.62,31.83,17.51c1.04,4.54,0.63,9.58,0.63,14.21c0,6.34,0,12.68,0,19.01
				c0,3.46-0.63,7.83,0.62,11.14c2.63,6.96,11.9,8.14,16.97,3.2c3.34-3.26,3.05-7.38,3.05-11.62c0-11.21,0.43-22.51-0.04-33.71
				c-0.99-23.94-21.83-41.23-45.02-41.65C346.15,542.63,346.15,545.63,348.08,545.67z"/>
		</g>
		<g>
			<path class="st1" d="M474.08,518.49c9.96,0.33,6.96,17.43,6.96,23.73c0,11.35,0,22.7,0,34.05c0,10.69,0.5,20.97-4.79,30.81
				c-11.12,20.68-37.25,29.61-58.01,17.77c-10.92-6.23-18.99-17.48-20.99-29.94c-2.21-13.73,2.23-26.53,11.65-36.53
				c-0.85-0.35-1.71-0.71-2.56-1.06c0,0.06,0,0.12,0,0.18c0,1.34,1.62,1.92,2.56,1.06c15.41-14.13,37.52-16.18,55.06-4.63
				c0.97,0.64,2.26-0.2,2.26-1.3c0-5.43,0-10.86,0-16.29C466.22,529.88,464.46,518.49,474.08,518.49c1.93,0,1.93-3,0-3
				c-9.29,0-10.86,7.94-10.86,15.44c0,7.23,0,14.47,0,21.7c0.75-0.43,1.5-0.86,2.26-1.3c-18.71-12.32-42.31-9.93-58.7,5.09
				c0.85,0.35,1.71,0.71,2.56,1.06c0-0.06,0-0.12,0-0.18c0-1.27-1.66-2.02-2.56-1.06c-16.14,17.13-17.53,43.27-1.92,61.41
				c15.65,18.18,42.52,20.45,61.29,5.86c8.36-6.5,14.67-15.83,16.93-26.25c1.01-4.65,0.95-9.33,0.95-14.05c0-13.21,0-26.42,0-39.64
				c0-8.71,3.51-27.63-9.96-28.09C472.15,515.42,472.15,518.42,474.08,518.49z"/>
			<path class="st1" d="M466.22,588.27c-0.51-14.42-12.66-27.4-27.42-27.42c-14.81-0.02-27.39,12.65-27.42,27.42
				c-0.03,14.8,12.62,27.42,27.42,27.42C453.92,615.69,465.75,602.99,466.22,588.27c0.06-1.93-2.94-1.93-3,0
				c-0.42,13-10.98,24.52-24.42,24.42c-13.17-0.1-24.45-11.18-24.42-24.42c0.03-12.95,10.71-23.8,23.56-24.39
				c13.41-0.62,24.82,11.38,25.28,24.39C463.29,590.19,466.29,590.2,466.22,588.27z"/>
		</g>
		<g>
			<path class="st1" d="M536.36,546.39c14.93,1.97,27.52,11.44,33.54,25.25c3.31,7.6,3.48,15.34,3.48,23.41c0,7.06,0,14.13,0,21.19
				c0,2.12,0.18,4.34,0,6.45c-0.76,8.79-14.21,10.81-15.59,1.36c-0.15-1.05-1.43-1.24-2.2-0.9c-5.24,2.35-9.99,5.23-15.7,6.47
				c-6.72,1.45-14.4,0.92-20.94-1.06c-13.24-4-23.85-15.05-28-28.14C481.75,571.43,507.16,543.49,536.36,546.39
				c1.92,0.19,1.91-2.81,0-3c-31.26-3.1-57.88,27.12-48.32,57.83c4.24,13.62,15.08,25.08,28.6,29.75
				c6.92,2.39,14.49,2.87,21.71,1.91c6.93-0.92,12.51-4.34,18.74-7.13c-0.73-0.3-1.47-0.6-2.2-0.9
				c1.84,12.53,20.75,10.31,21.49-1.88c0.47-7.8,0-15.78,0-23.6c0-10,0.35-19.66-3.79-29.09c-6.55-14.92-20.16-24.77-36.23-26.9
				C534.45,543.14,534.47,546.14,536.36,546.39z"/>
			<path class="st1" d="M531.14,615.69c14.93-0.47,27.51-12.07,27.42-27.42c-0.08-14.55-12.81-27.4-27.42-27.42
				c-14.59-0.02-27.23,12.9-27.24,27.42C503.89,602.98,516.71,615.17,531.14,615.69c1.93,0.07,1.93-2.93,0-3
				c-12.72-0.45-24.35-11.39-24.24-24.42c0.11-12.88,11.21-24.44,24.24-24.42c12.75,0.02,23.76,11,24.39,23.58
				c0.7,13.98-10.88,24.83-24.39,25.26C529.22,612.75,529.21,615.75,531.14,615.69z"/>
		</g>
		<g>
			<path class="st1" d="M588.74,630.51c-7.75-0.59-7.32-7.85-7.32-13.36c0-5.74,0-11.48,0-17.22c0-4.1-0.06-8.21,0-12.31
				c0.15-9.88,3.81-19.28,10.42-26.63c7.09-7.88,18.97-14.69,29.88-14.49c3.84,0.07,7.11,1.43,8.55,5.31
				c1.21,3.23-0.61,6.7-3.63,8.34c-2.31,1.25-5.31,0.87-7.83,1.3c-2.36,0.4-4.6,1.12-6.77,2.12c-8.27,3.84-14.25,11.83-15.54,20.87
				c-0.5,3.53-0.28,7.22-0.28,10.77c0,6.59,0,13.18,0,19.78C596.24,621.16,597.8,629.9,588.74,630.51c-1.92,0.13-1.93,3.13,0,3
				c6.38-0.43,10.5-5.12,10.5-11.36c0-6.58,0-13.16,0-19.74c0-4.65-0.13-9.31,0-13.96c0.23-8.11,3.9-15.67,10.71-20.28
				c3.57-2.42,7.55-3.65,11.81-4.08c2.34-0.24,4.31-0.2,6.41-1.35c7.95-4.36,6.85-15.23-1.34-18.59c-4.17-1.71-9.75-0.3-13.97,0.8
				c-6.06,1.58-11.83,4.37-16.82,8.15c-9.1,6.89-15.52,17.18-17.16,28.52c-0.74,5.12-0.46,10.39-0.46,15.55c0,7.69,0,15.37,0,23.06
				c0,6.6,2.92,12.73,10.32,13.29C590.67,633.65,590.66,630.65,588.74,630.51z"/>
		</g>
	</g>
</g>
</svg>
